<?xml version="1.0" encoding="UTF-8" standalone="no"?>
<svg width="98px" height="135px" viewBox="0 0 98 135" version="1.1" xmlns="http://www.w3.org/2000/svg" xmlns:xlink="http://www.w3.org/1999/xlink" style="background: #C8C8C8;">
    <!-- Generator: Sketch 39.1 (31720) - http://www.bohemiancoding.com/sketch -->
    <title>Artboard</title>
    <desc>Created with Sketch.</desc>
    <defs></defs>
    <g id="Avatars" stroke="none" stroke-width="1" fill="none" fill-rule="evenodd">
        <g id="Artboard" fill="#FFFFFF">
            <path d="M91.9265611,106.899442 L91.9265611,107.133244 C91.9279472,107.5224 91.9279472,108.448375 91.8891362,109.598923 C78.9165612,116.259181 64.336102,120 48.9239787,120 C33.5575969,120 19.0187209,116.282253 6.07664022,109.658912 C6.03644312,108.471448 6.03505701,107.514709 6.03644312,107.124015 C6.03505701,106.697943 6.03782922,106.445684 6.03782922,106.445684 L6.04614586,106.447222 C6.01565151,105.856566 5.99763212,105.205922 6.00179044,104.515286 C5.94773227,99.2701404 7.08295387,91.2778312 14.1742771,89.3412805 C24.9179922,86.403384 34.1328313,81.4443376 34.1979783,81.4089598 C35.0767701,79.8000385 35.5355715,77.4804845 35.7670514,75.8254182 C33.0253318,71.8369544 31.7514995,67.0517208 31.1859679,62.9448183 C30.176882,62.8540665 28.8434471,61.2605268 27.4115986,55.5800808 C25.5736208,48.2891752 27.2910073,46.8263795 28.9654245,46.8263795 C29.0763131,46.8263795 29.1872016,46.8325322 29.2967041,46.8448375 C28.0006941,42.7625457 27.974358,38.7448568 28.842061,35.0286483 C29.7555055,30.6525668 31.8623881,27.1486253 34.2257004,24.4383772 C35.7185376,22.6556431 37.4095881,21.0959431 39.2045967,19.8192655 C40.6641673,18.6810229 42.2789819,17.7058258 44.04211,17.0367237 L44.0434961,17.0351855 L44.0434961,17.0351855 C45.4212864,16.5122092 46.8877876,16.1753509 48.4416135,16.0938281 C49.0930837,16.0307633 49.7223763,16 50.3308773,16 C54.2064323,16 57.2281455,17.2105364 59.4847276,18.7117862 C63.3824604,21.1251682 64.8614366,24.3199385 64.8614366,24.3199385 C64.8614366,24.3199385 74.6681433,25.0936358 70.3753701,48.1661219 L70.3753701,48.1661219 C71.6949439,48.6783311 72.6250217,50.710248 71.0961457,56.7736974 C69.6199418,62.6310325 68.249082,64.1430494 67.2289072,64.1430494 C66.9489136,64.1430494 66.6966422,64.0292251 66.4748651,63.8600269 C65.8705224,67.6746779 64.6355011,71.9569314 62.2001112,75.6054605 C62.444066,77.4404922 62.9804894,80.2430302 64.0990777,81.8996347 C64.0990777,81.8996347 73.0422399,86.3926168 83.8247659,89.3397424 C90.8994559,91.2747549 92.0457663,99.2316862 91.9986387,104.476831 C92.002797,105.364353 91.9723027,106.184195 91.9265611,106.899442 L91.9265611,106.899442 Z" id="User-Male"></path>
        </g>
    </g>
</svg>