<svg id="SvgjsSvg1008" xmlns="http://www.w3.org/2000/svg" version="1.1" xmlns:xlink="http://www.w3.org/1999/xlink" xmlns:svgjs="http://svgjs.com/svgjs" width="9.817616842004213" height="18.299999952316284"><defs id="SvgjsDefs1009"><clipPath id="SvgjsClipPath1012"><path id="SvgjsPath1011" d="M230.59119 568.65L230.59119 550.35L240.40881000000002 550.35L240.40881000000002 568.65ZM237.34 551C234.98 551 233.45000000000002 552.64 233.45000000000002 555.18L233.45000000000002 557.1099999999999L231.33 557.1099999999999C231.15 557.1099999999999 231 557.2699999999999 231 557.4599999999999L231 560.2499999999999C231 560.4499999999999 231.15 560.5999999999999 231.33 560.5999999999999L233.45000000000002 560.5999999999999L233.45000000000002 567.6499999999999C233.45000000000002 567.8399999999999 233.60000000000002 567.9999999999999 233.78000000000003 567.9999999999999L236.54000000000002 567.9999999999999C236.72000000000003 567.9999999999999 236.87000000000003 567.8399999999999 236.87000000000003 567.6499999999999L236.87000000000003 560.5999999999999L239.35000000000002 560.5999999999999C239.53000000000003 560.5999999999999 239.68000000000004 560.4499999999999 239.68000000000004 560.2499999999999L239.68000000000004 557.4599999999999C239.68000000000004 557.3699999999999 239.64000000000004 557.28 239.58000000000004 557.2099999999999C239.52000000000004 557.15 239.43000000000004 557.1099999999999 239.35000000000005 557.1099999999999L236.87000000000006 557.1099999999999L236.87000000000006 555.4799999999999C236.87000000000006 554.6899999999999 237.05000000000007 554.2899999999998 238.03000000000006 554.2899999999998L239.45000000000005 554.2899999999998C239.63000000000005 554.2899999999998 239.78000000000006 554.1399999999999 239.78000000000006 553.9499999999998L239.78000000000006 551.3499999999998C239.78000000000006 551.1599999999997 239.63000000000005 550.9999999999998 239.45000000000005 550.9999999999998Z " fill="#ffffff"></path></clipPath></defs><path id="SvgjsPath1010" d="M239.45 551L237.33999999999997 551C234.97999999999996 551 233.45 552.64 233.45 555.18L233.45 557.1099999999999L231.32999999999998 557.1099999999999C231.14999999999998 557.1099999999999 230.99999999999997 557.2699999999999 230.99999999999997 557.4599999999999L230.99999999999997 560.2499999999999C230.99999999999997 560.4499999999999 231.14999999999998 560.5999999999999 231.32999999999998 560.5999999999999L233.45 560.5999999999999L233.45 567.6499999999999C233.45 567.8399999999999 233.6 567.9999999999999 233.78 567.9999999999999L236.54 567.9999999999999C236.72 567.9999999999999 236.87 567.8399999999999 236.87 567.6499999999999L236.87 560.5999999999999L239.35 560.5999999999999C239.53 560.5999999999999 239.68 560.4499999999999 239.68 560.2499999999999L239.68 557.4599999999999C239.68 557.3699999999999 239.64000000000001 557.28 239.58 557.2099999999999C239.52 557.15 239.43 557.1099999999999 239.35000000000002 557.1099999999999L236.87000000000003 557.1099999999999L236.87000000000003 555.4799999999999C236.87000000000003 554.6899999999999 237.05000000000004 554.2899999999998 238.03000000000003 554.2899999999998L239.45000000000002 554.2899999999998C239.63000000000002 554.2899999999998 239.78000000000003 554.1399999999999 239.78000000000003 553.9499999999998L239.78000000000003 551.3499999999998C239.78000000000003 551.1599999999997 239.63000000000002 550.9999999999998 239.45000000000002 550.9999999999998Z " fill-opacity="0" fill="#ffffff" stroke-dasharray="0" stroke-linejoin="miter" stroke-linecap="butt" stroke-opacity="1" stroke="#979797" stroke-miterlimit="50" stroke-width="2.599999904632568" clip-path="url(&quot;#SvgjsClipPath1012&quot;)" transform="matrix(1,0,0,1,-230.5911915789979,-550.3500000238419)"></path></svg>