<?xml version="1.0" encoding="UTF-8" standalone="no"?>
<svg width="9px" height="17px" viewBox="0 0 9 17" version="1.1" xmlns="http://www.w3.org/2000/svg" xmlns:xlink="http://www.w3.org/1999/xlink">
    <!-- Generator: Sketch 39.1 (31720) - http://www.bohemiancoding.com/sketch -->
    <title>Shape</title>
    <desc>Created with Sketch.</desc>
    <defs></defs>
    <g id="Page-1" stroke="none" stroke-width="1" fill="none" fill-rule="evenodd">
        <g id="main-6" transform="translate(-229.000000, -551.000000)" fill="#3A569D">
            <g id="share-copy" transform="translate(125.000000, 551.000000)">
                <path d="M112.445884,0.00353713471 L110.34083,-7.10542736e-15 C107.975875,-7.10542736e-15 106.447536,1.64211479 106.447536,4.18372294 L106.447536,6.11269935 L104.330999,6.11269935 C104.148105,6.11269935 104,6.26797957 104,6.45951541 L104,9.25438241 C104,9.44591825 104.148274,9.60102161 104.330999,9.60102161 L106.447536,9.60102161 L106.447536,16.6533608 C106.447536,16.8448966 106.595642,17 106.778536,17 L109.540015,17 C109.722909,17 109.871014,16.8447198 109.871014,16.6533608 L109.871014,9.60102161 L112.34574,9.60102161 C112.528634,9.60102161 112.676739,9.44591825 112.676739,9.25438241 L112.677752,6.45951541 C112.677752,6.36754991 112.642795,6.27947526 112.580817,6.21439198 C112.518839,6.1493087 112.4344,6.11269935 112.346584,6.11269935 L109.871014,6.11269935 L109.871014,4.47748198 C109.871014,3.69153064 110.049855,3.29254185 111.027485,3.29254185 L112.445546,3.29201128 C112.628271,3.29201128 112.776376,3.13673106 112.776376,2.94537208 L112.776376,0.350176337 C112.776376,0.158994205 112.62844,0.00389084818 112.445884,0.00353713471 L112.445884,0.00353713471 Z" id="Shape"></path>
            </g>
        </g>
    </g>
</svg>