<svg id="SvgjsSvg1008" xmlns="http://www.w3.org/2000/svg" version="1.1" xmlns:xlink="http://www.w3.org/1999/xlink" xmlns:svgjs="http://svgjs.com/svgjs" width="25" height="20"><defs id="SvgjsDefs1009"></defs><path id="SvgjsPath1010" d="M1121.23 36L1124.3600000000001 43.39C1124.3600000000001 45.18 1122.8000000000002 46.56 1120.18 46.56C1117.5700000000002 46.56 1116 45.18 1116 43.39L1121.23 36L1133.77 36L1139 43.39C1139 45.18 1137.43 46.56 1134.82 46.56C1132.2 46.56 1130.6399999999999 45.18 1130.6399999999999 43.39L1133.77 36 " fill-opacity="0" stroke-dasharray="0" stroke-linejoin="miter" stroke-linecap="butt" stroke-opacity="1" stroke="#343434" stroke-miterlimit="50" stroke-width="2" transform="matrix(1,0,0,1,-1115,-35)"></path><path id="SvgjsPath1011" d="M1128 36L1128 53.94 " fill-opacity="0" stroke-dasharray="0" stroke-linejoin="miter" stroke-linecap="butt" stroke-opacity="1" stroke="#343434" stroke-miterlimit="50" stroke-width="2" transform="matrix(1,0,0,1,-1115,-35)"></path><path id="SvgjsPath1012" d="M1122 54L1132.45 54 " fill-opacity="0" stroke-dasharray="0" stroke-linejoin="miter" stroke-linecap="butt" stroke-opacity="1" stroke="#343434" stroke-miterlimit="50" stroke-width="2" transform="matrix(1,0,0,1,-1115,-35)"></path><path id="SvgjsPath1013" d="M1116 43L1124.36 43 " fill-opacity="0" stroke-dasharray="0" stroke-linejoin="miter" stroke-linecap="butt" stroke-opacity="1" stroke="#343434" stroke-miterlimit="50" stroke-width="2" transform="matrix(1,0,0,1,-1115,-35)"></path><path id="SvgjsPath1014" d="M1131 43L1139.36 43 " fill-opacity="0" stroke-dasharray="0" stroke-linejoin="miter" stroke-linecap="butt" stroke-opacity="1" stroke="#343434" stroke-miterlimit="50" stroke-width="2" transform="matrix(1,0,0,1,-1115,-35)"></path></svg>
