<svg id="SvgjsSvg1041" xmlns="http://www.w3.org/2000/svg" version="1.1" xmlns:xlink="http://www.w3.org/1999/xlink" xmlns:svgjs="http://svgjs.com/svgjs" width="132" height="26"><defs id="SvgjsDefs1042"></defs><path id="SvgjsPath1043" d="M1053.53 583.29C1054.03 582.93 1054.43 582.43 1054.6499999999999 581.8499999999999C1054.81 581.42 1054.8899999999999 580.9599999999999 1054.8999999999999 580.5099999999999C1054.9199999999998 579.7599999999999 1054.6599999999999 579.0399999999998 1054.1699999999998 578.4799999999999C1052.7699999999998 577.3799999999999 1050.8 577.3699999999999 1049.37 578.43C1048.85 579 1048.4799999999998 579.6999999999999 1048.3 580.4499999999999C1048.26 580.67 1048.1399999999999 580.8799999999999 1047.95 581.02C1047.8 581.14 1047.6100000000001 581.1999999999999 1047.42 581.21L1045.1000000000001 581.21C1044.89 581.21 1044.68 581.13 1044.5200000000002 580.99C1044.3600000000001 580.85 1044.2800000000002 580.63 1044.3100000000002 580.42C1044.3600000000001 579.56 1044.5900000000001 578.7099999999999 1044.9800000000002 577.9399999999999C1045.3700000000003 577.17 1045.9000000000003 576.4699999999999 1046.5500000000002 575.9C1047.2300000000002 575.3 1048.0100000000002 574.8299999999999 1048.8600000000001 574.51C1050.8200000000002 573.8 1052.98 573.83 1054.92 574.6C1055.75 574.95 1056.51 575.47 1057.14 576.13C1057.71 576.74 1058.16 577.45 1058.45 578.23C1058.73 578.96 1058.8700000000001 579.74 1058.88 580.52C1058.88 580.98 1058.8500000000001 581.4499999999999 1058.7900000000002 581.91C1058.7200000000003 582.36 1058.5800000000002 582.81 1058.3700000000001 583.2199999999999C1058.1200000000001 583.7199999999999 1057.8000000000002 584.18 1057.44 584.5899999999999C1056.94 585.1499999999999 1056.38 585.67 1055.79 586.1199999999999L1050.35 591.0499999999998L1058.53 591.0499999999998C1058.96 591.0499999999998 1059.32 591.3999999999999 1059.32 591.8399999999998L1059.32 593.9099999999999C1059.32 594.3399999999998 1058.96 594.6899999999998 1058.53 594.6999999999998L1044.79 594.6999999999998C1044.36 594.6899999999998 1044 594.3399999999998 1044 593.9099999999999L1044 592.1599999999999C1043.99 591.8499999999999 1044.1 591.5499999999998 1044.29 591.2999999999998C1044.44 591.1099999999998 1044.6 590.9399999999998 1044.79 590.7899999999998Z " fill="#dadada" fill-opacity="1" transform="matrix(1,0,0,1,-986,-569)"></path><path id="SvgjsPath1044" d="M1086.17 580.59C1086.03 580.4200000000001 1085.97 580.21 1086.01 580C1086.04 579.79 1086.15 579.6 1086.32 579.47L1092.6899999999998 574.49C1092.85 574.38 1093.0099999999998 574.26 1093.1799999999998 574.16C1093.34 574.05 1093.5299999999997 574 1093.7199999999998 574L1096.0199999999998 574C1096.4499999999998 574 1096.8099999999997 574.35 1096.8099999999997 574.79L1096.8099999999997 593.62C1096.8099999999997 594.0600000000001 1096.4499999999998 594.41 1096.0199999999998 594.41L1093.6399999999996 594.41C1093.1999999999996 594.41 1092.8499999999997 594.06 1092.8399999999997 593.62L1092.8399999999997 579.21L1088.6699999999996 582.45C1088.5099999999995 582.58 1088.2999999999997 582.6400000000001 1088.0999999999997 582.61C1087.8899999999996 582.58 1087.6899999999996 582.47 1087.5499999999997 582.3100000000001Z " fill="#dadada" fill-opacity="1" transform="matrix(1,0,0,1,-986,-569)"></path><path id="SvgjsPath1045" d="M1101.62 584.61C1102.01 583.83 1102.4699999999998 583.08 1102.9699999999998 582.37L1108.5499999999997 574.58C1108.6399999999996 574.45 1108.7399999999998 574.32 1108.8499999999997 574.21C1109.0199999999998 574.0600000000001 1109.2399999999998 573.98 1109.4599999999996 574L1112.0999999999997 574C1112.3099999999997 574 1112.5199999999998 574.08 1112.6699999999996 574.23C1112.8199999999997 574.37 1112.9099999999996 574.57 1112.9099999999996 574.78C1112.9199999999996 574.86 1112.8999999999996 574.9399999999999 1112.8699999999997 575.01C1112.8399999999997 575.0699999999999 1112.8099999999997 575.12 1112.7699999999998 575.16L1109.1299999999997 580.35C1110.2199999999996 580.36 1111.2899999999997 580.5500000000001 1112.3199999999997 580.91C1113.2399999999998 581.2199999999999 1114.0799999999997 581.7199999999999 1114.8099999999997 582.35C1115.5099999999998 582.98 1116.0599999999997 583.74 1116.4299999999996 584.6C1117.1999999999996 586.46 1117.1999999999996 588.5600000000001 1116.4299999999996 590.4200000000001C1116.0499999999995 591.2900000000001 1115.4899999999996 592.0600000000001 1114.7799999999995 592.69C1114.0499999999995 593.33 1113.1899999999996 593.83 1112.2599999999995 594.1400000000001C1110.1599999999996 594.8400000000001 1107.8899999999996 594.8400000000001 1105.7999999999995 594.1400000000001C1104.8699999999994 593.8300000000002 1104.0099999999995 593.3300000000002 1103.2699999999995 592.69C1102.5699999999995 592.0600000000001 1101.9999999999995 591.2900000000001 1101.6299999999994 590.4200000000001C1101.2199999999993 589.5000000000001 1100.9999999999993 588.5100000000001 1100.9999999999993 587.5000000000001C1100.9799999999993 586.5000000000001 1101.1999999999994 585.5200000000001 1101.6199999999992 584.6100000000001ZM1111.95 585.01C1110.21 583.67 1107.77 583.67 1106.04 585.01C1105.35 585.66 1104.97 586.56 1105 587.5C1104.98 588.45 1105.35 589.36 1106.04 590.02C1107.76 591.4 1110.22 591.4 1111.95 590.02C1112.63 589.36 1113.01 588.4499999999999 1112.99 587.5C1113.01 586.56 1112.63 585.66 1111.95 585.01Z " fill="#dadada" fill-opacity="1" transform="matrix(1,0,0,1,-986,-569)"></path><path id="SvgjsPath1046" d="M1072.03 585.27L1064.22 576.67C1063.91 576.3299999999999 1063.93 575.81 1064.27 575.51L1065.72 574.1899999999999C1066.06 573.89 1066.59 573.91 1066.9 574.2399999999999L1072.26 580.1899999999999C1072.66 580.6099999999999 1073.33 580.64 1073.76 580.2499999999999L1085.84 569.2199999999999C1086.1799999999998 568.91 1086.6999999999998 568.93 1087.01 569.2699999999999L1088.31 570.7299999999999C1088.62 571.06 1088.59 571.5799999999999 1088.26 571.8899999999999L1073.53 585.3399999999999C1073.1 585.7299999999999 1072.43 585.6999999999999 1072.03 585.2699999999999Z " fill="#dadada" fill-opacity="1" transform="matrix(1,0,0,1,-986,-569)"></path><path id="SvgjsPath1047" d="M1069 574L1072.41 577.78L1076.5500000000002 574L1069.0000000000002 574Z " fill="#dadada" fill-opacity="1" transform="matrix(1,0,0,1,-986,-569)"></path><path id="SvgjsPath1048" d="M1079.4 582.81L1079.4 588.68C1079.4 589.8 1078.49 590.7099999999999 1077.3500000000001 590.7099999999999L1069.2300000000002 590.7099999999999C1068.1000000000001 590.7099999999999 1067.1800000000003 589.8 1067.1800000000003 588.68L1067.1800000000003 583.9L1063.0000000000002 579.31L1063.0000000000002 589.63C1063.0000000000002 592.32 1065.2000000000003 594.49 1067.9100000000003 594.5L1078.6700000000003 594.5C1081.3800000000003 594.49 1083.5700000000004 592.32 1083.5700000000004 589.63L1083.5700000000004 579Z " fill="#dadada" fill-opacity="1" transform="matrix(1,0,0,1,-986,-569)"></path><path id="SvgjsPath1049" d="M986.33 582.47C986.1500000000001 582.47 986 582.33 986 582.15L986 574.3299999999999C986 574.15 986.15 574.0099999999999 986.33 573.9999999999999L989.9200000000001 573.9999999999999C990.3700000000001 573.9899999999999 990.8100000000001 574.0699999999999 991.23 574.2399999999999C991.5500000000001 574.3799999999999 991.83 574.5799999999999 992.07 574.8299999999999C992.2700000000001 575.06 992.4300000000001 575.3199999999999 992.5300000000001 575.5999999999999C992.6200000000001 575.8599999999999 992.6600000000001 576.1199999999999 992.6700000000001 576.3799999999999C992.6700000000001 576.5999999999999 992.6400000000001 576.8199999999999 992.57 577.0299999999999C992.5100000000001 577.2099999999998 992.4300000000001 577.3699999999999 992.33 577.5199999999999C992.25 577.6399999999999 992.1500000000001 577.7499999999999 992.0500000000001 577.8499999999999C991.98 577.92 991.9000000000001 577.9799999999999 991.82 578.0299999999999C992.11 578.2199999999999 992.36 578.4699999999999 992.5500000000001 578.7499999999999C992.7700000000001 579.1099999999999 992.8900000000001 579.5199999999999 992.8700000000001 579.9299999999998C992.8700000000001 580.2399999999998 992.8100000000002 580.5499999999998 992.7000000000002 580.8499999999998C992.5900000000001 581.1499999999997 992.4200000000002 581.4299999999998 992.2000000000002 581.6599999999997C991.9700000000001 581.9099999999997 991.6900000000002 582.1099999999998 991.3800000000001 582.2499999999998C991.0200000000001 582.3999999999997 990.6300000000001 582.4799999999998 990.2400000000001 582.4699999999998ZM990.73 575.72C990.46 575.5400000000001 990.13 575.46 989.8100000000001 575.48L987.62 575.48L987.62 577.35L989.8100000000001 577.35C990.1300000000001 577.37 990.46 577.2900000000001 990.73 577.11C990.9200000000001 576.94 991.03 576.7 991.02 576.44C991.05 576.1700000000001 990.9399999999999 575.9000000000001 990.73 575.72ZM987.64 580.96L989.9 580.96C990.25 580.98 990.6 580.88 990.88 580.6700000000001C991.09 580.48 991.2 580.21 991.2 579.9300000000001C991.2 579.6500000000001 991.09 579.3800000000001 990.88 579.1800000000001C990.61 578.97 990.26 578.86 989.92 578.8900000000001L987.66 578.8900000000001Z " fill="#dadada" fill-opacity="1" transform="matrix(1,0,0,1,-986,-569)"></path><path id="SvgjsPath1050" d="M994.01 574.33C994.01 574.1500000000001 994.16 574.01 994.33 574.01L995.32 574.01C995.5 574.01 995.6500000000001 574.15 995.6500000000001 574.33L995.6500000000001 577.32L997.96 577.32C998.32 577.3100000000001 998.6800000000001 577.37 999.02 577.5C999.64 577.73 1000.13 578.21 1000.36 578.82C1000.49 579.1600000000001 1000.5600000000001 579.5200000000001 1000.5500000000001 579.88C1000.5500000000001 580.22 1000.5000000000001 580.56 1000.3800000000001 580.88C1000.2700000000001 581.18 1000.1000000000001 581.46 999.8800000000001 581.6899999999999C999.6500000000001 581.93 999.3800000000001 582.1199999999999 999.0700000000002 582.2399999999999C998.7200000000001 582.3799999999999 998.3500000000001 582.4499999999999 997.9700000000001 582.4399999999999L994.3300000000002 582.4399999999999C994.1500000000002 582.4399999999999 994.0000000000001 582.3 994.0000000000001 582.1199999999999ZM995.65 580.96L997.7099999999999 580.96C998.04 580.99 998.3699999999999 580.88 998.6099999999999 580.6500000000001C998.9899999999999 580.2300000000001 998.9899999999999 579.5900000000001 998.6099999999999 579.1600000000001C998.3699999999999 578.94 998.0399999999998 578.82 997.7099999999999 578.8500000000001L995.65 578.8500000000001ZM1001.36 574.01C1001.1800000000001 574.01 1001.03 574.15 1001.03 574.33L1001.03 582.1500000000001C1001.03 582.32 1001.18 582.4700000000001 1001.36 582.4700000000001L1002.35 582.4700000000001C1002.53 582.4700000000001 1002.6700000000001 582.3200000000002 1002.6800000000001 582.1500000000001L1002.6800000000001 574.33C1002.6700000000001 574.1500000000001 1002.5300000000001 574 1002.35 574Z " fill="#dadada" fill-opacity="1" transform="matrix(1,0,0,1,-986,-569)"></path><path id="SvgjsPath1051" d="M1005.33 582.47C1005.1500000000001 582.47 1005 582.32 1005 582.15L1005 574.3299999999999C1005 574.15 1005.15 573.9999999999999 1005.33 573.9999999999999L1010.6500000000001 573.9999999999999C1010.83 573.9999999999999 1010.9800000000001 574.1499999999999 1010.9800000000001 574.3299999999999L1010.9800000000001 575.18C1010.9800000000001 575.3599999999999 1010.8300000000002 575.51 1010.6500000000001 575.51L1006.6400000000001 575.51L1006.6400000000001 577.31L1008.95 577.31C1009.3100000000001 577.3 1009.6800000000001 577.3699999999999 1010.01 577.5C1010.63 577.73 1011.12 578.21 1011.35 578.82C1011.48 579.1500000000001 1011.5500000000001 579.5100000000001 1011.5400000000001 579.87C1011.5500000000001 580.21 1011.4900000000001 580.55 1011.3800000000001 580.87C1011.2700000000001 581.17 1011.0900000000001 581.45 1010.8700000000001 581.68C1010.6500000000001 581.92 1010.3700000000001 582.1099999999999 1010.0700000000002 582.2299999999999C1009.7100000000002 582.3699999999999 1009.3400000000001 582.4399999999999 1008.9600000000002 582.4399999999999ZM1006.64 580.96L1008.6999999999999 580.96C1009.04 580.99 1009.3699999999999 580.88 1009.6099999999999 580.6500000000001C1009.9899999999999 580.2300000000001 1009.9899999999999 579.5900000000001 1009.6099999999999 579.1600000000001C1009.3699999999999 578.94 1009.0399999999998 578.82 1008.6999999999999 578.8500000000001L1006.65 578.8500000000001Z " fill="#dadada" fill-opacity="1" transform="matrix(1,0,0,1,-986,-569)"></path><path id="SvgjsPath1052" d="M1013.26 576.02C1013.4 575.63 1013.63 575.28 1013.92 574.98C1014.24 574.6700000000001 1014.61 574.4200000000001 1015.02 574.26C1015.52 574.08 1016.05 573.99 1016.5799999999999 574C1017.1099999999999 573.99 1017.6299999999999 574.08 1018.1299999999999 574.25C1018.5499999999998 574.41 1018.9199999999998 574.66 1019.2299999999999 574.98C1019.5199999999999 575.27 1019.7499999999999 575.63 1019.8999999999999 576.02C1020.0599999999998 576.43 1020.1499999999999 576.86 1020.1699999999998 577.3C1020.1699999999998 577.4599999999999 1020.1699999999998 577.62 1020.1699999999998 577.81C1020.1699999999998 577.9899999999999 1020.1699999999998 578.18 1020.1699999999998 578.38C1020.1699999999998 578.58 1020.1699999999998 578.77 1020.1699999999998 578.96C1020.1699999999998 579.1500000000001 1020.1699999999998 579.32 1020.1699999999998 579.47C1020.1499999999999 579.9100000000001 1020.0599999999998 580.34 1019.9099999999999 580.75C1019.7699999999999 581.14 1019.5499999999998 581.49 1019.2599999999999 581.79C1018.9499999999999 582.0999999999999 1018.5699999999998 582.3499999999999 1018.1499999999999 582.51C1017.1399999999999 582.85 1016.0499999999998 582.85 1015.0399999999998 582.51C1014.6199999999999 582.35 1014.2499999999999 582.1 1013.9399999999998 581.79C1013.6499999999999 581.49 1013.4199999999998 581.14 1013.2799999999999 580.75C1013.1199999999999 580.34 1013.0399999999998 579.91 1013.0099999999999 579.47C1013.0099999999999 579.3100000000001 1013.0099999999999 579.15 1013.0099999999999 578.96C1013.0099999999999 578.7800000000001 1013.0099999999999 578.59 1013.0099999999999 578.38C1013.0099999999999 578.1899999999999 1013.0099999999999 577.99 1013.0099999999999 577.81C1013.0099999999999 577.6199999999999 1013.0099999999999 577.4499999999999 1012.9999999999999 577.3C1013.0199999999999 576.8599999999999 1013.1099999999999 576.43 1013.2599999999999 576.02ZM1018.52 577.36C1018.52 576.3000000000001 1017.66 575.4300000000001 1016.5799999999999 575.4300000000001C1015.5099999999999 575.4300000000001 1014.6399999999999 576.3000000000001 1014.6399999999999 577.36C1014.6399999999999 577.67 1014.6399999999999 578.01 1014.6399999999999 578.38C1014.6399999999999 578.76 1014.6399999999999 579.1 1014.6399999999999 579.41C1014.6399999999999 579.92 1014.8499999999999 580.4 1015.2099999999999 580.75C1016.0099999999999 581.4 1017.16 581.4 1017.9599999999999 580.75C1018.3199999999999 580.4 1018.5199999999999 579.92 1018.5199999999999 579.41C1018.5199999999999 579.1 1018.5199999999999 578.76 1018.5199999999999 578.38C1018.5199999999999 578.01 1018.5299999999999 577.67 1018.5299999999999 577.36Z " fill="#dadada" fill-opacity="1" transform="matrix(1,0,0,1,-986,-569)"></path><path id="SvgjsPath1053" d="M1024.6 574C1025.4199999999998 573.96 1026.24 574.22 1026.8899999999999 574.73C1027.4599999999998 575.24 1027.7599999999998 575.99 1027.6999999999998 576.75C1027.7599999999998 577.51 1027.4599999999998 578.26 1026.8899999999999 578.79C1026.2399999999998 579.3 1025.4199999999998 579.55 1024.6 579.51L1022.6399999999999 579.51L1022.6399999999999 582.21C1022.6399999999999 582.39 1022.4999999999999 582.5300000000001 1022.3199999999998 582.5300000000001L1021.3299999999998 582.5300000000001C1021.1499999999999 582.5300000000001 1020.9999999999998 582.3900000000001 1020.9999999999998 582.21L1020.9999999999998 574.33C1020.9999999999998 574.1500000000001 1021.1499999999997 574.01 1021.3299999999998 574ZM1022.64 577.94L1024.54 577.94C1024.92 577.96 1025.31 577.86 1025.6399999999999 577.6700000000001C1025.9399999999998 577.44 1026.1 577.08 1026.06 576.71C1026.1 576.35 1025.94 575.99 1025.6399999999999 575.77C1025.31 575.59 1024.9199999999998 575.5 1024.54 575.51L1022.64 575.51Z " fill="#dadada" fill-opacity="1" transform="matrix(1,0,0,1,-986,-569)"></path><path id="SvgjsPath1054" d="M1029.01 574.33C1029.01 574.1500000000001 1029.16 574.01 1029.33 574.01L1030.32 574.01C1030.5 574.01 1030.6499999999999 574.15 1030.6499999999999 574.33L1030.6499999999999 577.32L1032.9599999999998 577.32C1033.3199999999997 577.3100000000001 1033.6799999999998 577.37 1034.0199999999998 577.5C1034.6399999999996 577.73 1035.1299999999997 578.21 1035.3599999999997 578.82C1035.4899999999998 579.1600000000001 1035.5599999999997 579.5200000000001 1035.5499999999997 579.88C1035.5499999999997 580.22 1035.4999999999998 580.56 1035.3799999999997 580.88C1035.2699999999998 581.18 1035.0999999999997 581.46 1034.8799999999997 581.6899999999999C1034.6499999999996 581.93 1034.3799999999997 582.1199999999999 1034.0699999999997 582.2399999999999C1033.7199999999998 582.3799999999999 1033.3499999999997 582.4499999999999 1032.9699999999998 582.4399999999999L1029.3299999999997 582.4399999999999C1029.1499999999996 582.4399999999999 1028.9999999999998 582.3 1028.9999999999998 582.1199999999999ZM1030.65 580.96L1032.71 580.96C1033.04 580.99 1033.3700000000001 580.88 1033.6100000000001 580.6500000000001C1033.9900000000002 580.2300000000001 1033.9900000000002 579.5900000000001 1033.6100000000001 579.1600000000001C1033.3700000000001 578.94 1033.0400000000002 578.82 1032.71 578.8500000000001L1030.65 578.8500000000001ZM1036.36 574.01C1036.1799999999998 574.01 1036.03 574.15 1036.03 574.33L1036.03 582.1500000000001C1036.03 582.32 1036.18 582.4700000000001 1036.36 582.4700000000001L1037.35 582.4700000000001C1037.53 582.4700000000001 1037.6699999999998 582.3200000000002 1037.6799999999998 582.1500000000001L1037.6799999999998 574.33C1037.6699999999998 574.1500000000001 1037.5299999999997 574 1037.35 574Z " fill="#dadada" fill-opacity="1" transform="matrix(1,0,0,1,-986,-569)"></path><path id="SvgjsPath1055" d="M986 589L986 587L1038 587L1038 589Z " fill="#dadada" fill-opacity="1" transform="matrix(1,0,0,1,-986,-569)"></path><path id="SvgjsPath1056" d="M986 594L986 592L1038 592L1038 594Z " fill="#dadada" fill-opacity="1" transform="matrix(1,0,0,1,-986,-569)"></path></svg>