<svg id="SvgjsSvg1018" xmlns="http://www.w3.org/2000/svg" version="1.1" xmlns:xlink="http://www.w3.org/1999/xlink" xmlns:svgjs="http://svgjs.com/svgjs" width="132" height="26"><defs id="SvgjsDefs1019"></defs><path id="SvgjsPath1020" d="M1048.53 583.29C1049.03 582.93 1049.43 582.43 1049.6499999999999 581.8499999999999C1049.81 581.42 1049.8899999999999 580.9599999999999 1049.8999999999999 580.5099999999999C1049.9199999999998 579.7599999999999 1049.6599999999999 579.0399999999998 1049.1699999999998 578.4799999999999C1047.7699999999998 577.3799999999999 1045.8 577.3699999999999 1044.37 578.43C1043.85 579 1043.4799999999998 579.6999999999999 1043.3 580.4499999999999C1043.26 580.67 1043.1399999999999 580.8799999999999 1042.95 581.02C1042.8 581.14 1042.6100000000001 581.1999999999999 1042.42 581.21L1040.1000000000001 581.21C1039.89 581.21 1039.68 581.13 1039.5200000000002 580.99C1039.3600000000001 580.85 1039.2800000000002 580.63 1039.3100000000002 580.42C1039.3600000000001 579.56 1039.5900000000001 578.7099999999999 1039.9800000000002 577.9399999999999C1040.3700000000003 577.17 1040.9000000000003 576.4699999999999 1041.5500000000002 575.9C1042.2300000000002 575.3 1043.0100000000002 574.8299999999999 1043.8600000000001 574.51C1045.8200000000002 573.8 1047.98 573.83 1049.92 574.6C1050.75 574.95 1051.51 575.47 1052.14 576.13C1052.71 576.74 1053.16 577.45 1053.45 578.23C1053.73 578.96 1053.8700000000001 579.74 1053.88 580.52C1053.88 580.98 1053.8500000000001 581.4499999999999 1053.7900000000002 581.91C1053.7200000000003 582.36 1053.5800000000002 582.81 1053.3700000000001 583.2199999999999C1053.1200000000001 583.7199999999999 1052.8000000000002 584.18 1052.44 584.5899999999999C1051.94 585.1499999999999 1051.38 585.67 1050.79 586.1199999999999L1045.35 591.0499999999998L1053.53 591.0499999999998C1053.96 591.0499999999998 1054.32 591.3999999999999 1054.32 591.8399999999998L1054.32 593.9099999999999C1054.32 594.3399999999998 1053.96 594.6899999999998 1053.53 594.6999999999998L1039.79 594.6999999999998C1039.36 594.6899999999998 1039 594.3399999999998 1039 593.9099999999999L1039 592.1599999999999C1038.99 591.8499999999999 1039.1 591.5499999999998 1039.29 591.2999999999998C1039.44 591.1099999999998 1039.6 590.9399999999998 1039.79 590.7899999999998Z " fill="#ffffff" fill-opacity="1" transform="matrix(1,0,0,1,-981,-569)"></path><path id="SvgjsPath1021" d="M1081.17 580.59C1081.03 580.4200000000001 1080.97 580.21 1081.01 580C1081.04 579.79 1081.15 579.6 1081.32 579.47L1087.6899999999998 574.49C1087.85 574.38 1088.0099999999998 574.26 1088.1799999999998 574.16C1088.34 574.05 1088.5299999999997 574 1088.7199999999998 574L1091.0199999999998 574C1091.4499999999998 574 1091.8099999999997 574.35 1091.8099999999997 574.79L1091.8099999999997 593.62C1091.8099999999997 594.0600000000001 1091.4499999999998 594.41 1091.0199999999998 594.41L1088.6399999999996 594.41C1088.1999999999996 594.41 1087.8499999999997 594.06 1087.8399999999997 593.62L1087.8399999999997 579.21L1083.6699999999996 582.45C1083.5099999999995 582.58 1083.2999999999997 582.6400000000001 1083.0999999999997 582.61C1082.8899999999996 582.58 1082.6899999999996 582.47 1082.5499999999997 582.3100000000001Z " fill="#ffffff" fill-opacity="1" transform="matrix(1,0,0,1,-981,-569)"></path><path id="SvgjsPath1022" d="M1096.62 584.61C1097.01 583.83 1097.4699999999998 583.08 1097.9699999999998 582.37L1103.5499999999997 574.58C1103.6399999999996 574.45 1103.7399999999998 574.32 1103.8499999999997 574.21C1104.0199999999998 574.0600000000001 1104.2399999999998 573.98 1104.4599999999996 574L1107.0999999999997 574C1107.3099999999997 574 1107.5199999999998 574.08 1107.6699999999996 574.23C1107.8199999999997 574.37 1107.9099999999996 574.57 1107.9099999999996 574.78C1107.9199999999996 574.86 1107.8999999999996 574.9399999999999 1107.8699999999997 575.01C1107.8399999999997 575.0699999999999 1107.8099999999997 575.12 1107.7699999999998 575.16L1104.1299999999997 580.35C1105.2199999999996 580.36 1106.2899999999997 580.5500000000001 1107.3199999999997 580.91C1108.2399999999998 581.2199999999999 1109.0799999999997 581.7199999999999 1109.8099999999997 582.35C1110.5099999999998 582.98 1111.0599999999997 583.74 1111.4299999999996 584.6C1112.1999999999996 586.46 1112.1999999999996 588.5600000000001 1111.4299999999996 590.4200000000001C1111.0499999999995 591.2900000000001 1110.4899999999996 592.0600000000001 1109.7799999999995 592.69C1109.0499999999995 593.33 1108.1899999999996 593.83 1107.2599999999995 594.1400000000001C1105.1599999999996 594.8400000000001 1102.8899999999996 594.8400000000001 1100.7999999999995 594.1400000000001C1099.8699999999994 593.8300000000002 1099.0099999999995 593.3300000000002 1098.2699999999995 592.69C1097.5699999999995 592.0600000000001 1096.9999999999995 591.2900000000001 1096.6299999999994 590.4200000000001C1096.2199999999993 589.5000000000001 1095.9999999999993 588.5100000000001 1095.9999999999993 587.5000000000001C1095.9799999999993 586.5000000000001 1096.1999999999994 585.5200000000001 1096.6199999999992 584.6100000000001ZM1106.95 585.01C1105.21 583.67 1102.77 583.67 1101.04 585.01C1100.35 585.66 1099.97 586.56 1100 587.5C1099.98 588.45 1100.35 589.36 1101.04 590.02C1102.76 591.4 1105.22 591.4 1106.95 590.02C1107.63 589.36 1108.01 588.4499999999999 1107.99 587.5C1108.01 586.56 1107.63 585.66 1106.95 585.01Z " fill="#ffffff" fill-opacity="1" transform="matrix(1,0,0,1,-981,-569)"></path><path id="SvgjsPath1023" d="M1067.03 585.27L1059.22 576.67C1058.91 576.3299999999999 1058.93 575.81 1059.27 575.51L1060.72 574.1899999999999C1061.06 573.89 1061.59 573.91 1061.9 574.2399999999999L1067.26 580.1899999999999C1067.66 580.6099999999999 1068.33 580.64 1068.76 580.2499999999999L1080.84 569.2199999999999C1081.1799999999998 568.91 1081.6999999999998 568.93 1082.01 569.2699999999999L1083.31 570.7299999999999C1083.62 571.06 1083.59 571.5799999999999 1083.26 571.8899999999999L1068.53 585.3399999999999C1068.1 585.7299999999999 1067.43 585.6999999999999 1067.03 585.2699999999999Z " fill="#ffffff" fill-opacity="1" transform="matrix(1,0,0,1,-981,-569)"></path><path id="SvgjsPath1024" d="M1064 574L1067.41 577.78L1071.5500000000002 574L1064.0000000000002 574Z " fill="#ffffff" fill-opacity="1" transform="matrix(1,0,0,1,-981,-569)"></path><path id="SvgjsPath1025" d="M1074.4 582.81L1074.4 588.68C1074.4 589.8 1073.49 590.7099999999999 1072.3500000000001 590.7099999999999L1064.2300000000002 590.7099999999999C1063.1000000000001 590.7099999999999 1062.1800000000003 589.8 1062.1800000000003 588.68L1062.1800000000003 583.9L1058.0000000000002 579.31L1058.0000000000002 589.63C1058.0000000000002 592.32 1060.2000000000003 594.49 1062.9100000000003 594.5L1073.6700000000003 594.5C1076.3800000000003 594.49 1078.5700000000004 592.32 1078.5700000000004 589.63L1078.5700000000004 579Z " fill="#ffffff" fill-opacity="1" transform="matrix(1,0,0,1,-981,-569)"></path><path id="SvgjsPath1026" d="M981.33 582.47C981.1500000000001 582.47 981 582.33 981 582.15L981 574.3299999999999C981 574.15 981.15 574.0099999999999 981.33 573.9999999999999L984.9200000000001 573.9999999999999C985.3700000000001 573.9899999999999 985.8100000000001 574.0699999999999 986.23 574.2399999999999C986.5500000000001 574.3799999999999 986.83 574.5799999999999 987.07 574.8299999999999C987.2700000000001 575.06 987.4300000000001 575.3199999999999 987.5300000000001 575.5999999999999C987.6200000000001 575.8599999999999 987.6600000000001 576.1199999999999 987.6700000000001 576.3799999999999C987.6700000000001 576.5999999999999 987.6400000000001 576.8199999999999 987.57 577.0299999999999C987.5100000000001 577.2099999999998 987.4300000000001 577.3699999999999 987.33 577.5199999999999C987.25 577.6399999999999 987.1500000000001 577.7499999999999 987.0500000000001 577.8499999999999C986.98 577.92 986.9000000000001 577.9799999999999 986.82 578.0299999999999C987.11 578.2199999999999 987.36 578.4699999999999 987.5500000000001 578.7499999999999C987.7700000000001 579.1099999999999 987.8900000000001 579.5199999999999 987.8700000000001 579.9299999999998C987.8700000000001 580.2399999999998 987.8100000000002 580.5499999999998 987.7000000000002 580.8499999999998C987.5900000000001 581.1499999999997 987.4200000000002 581.4299999999998 987.2000000000002 581.6599999999997C986.9700000000001 581.9099999999997 986.6900000000002 582.1099999999998 986.3800000000001 582.2499999999998C986.0200000000001 582.3999999999997 985.6300000000001 582.4799999999998 985.2400000000001 582.4699999999998ZM985.73 575.72C985.46 575.5400000000001 985.13 575.46 984.8100000000001 575.48L982.62 575.48L982.62 577.35L984.8100000000001 577.35C985.1300000000001 577.37 985.46 577.2900000000001 985.73 577.11C985.9200000000001 576.94 986.03 576.7 986.02 576.44C986.05 576.1700000000001 985.9399999999999 575.9000000000001 985.73 575.72ZM982.64 580.96L984.9 580.96C985.25 580.98 985.6 580.88 985.88 580.6700000000001C986.09 580.48 986.2 580.21 986.2 579.9300000000001C986.2 579.6500000000001 986.09 579.3800000000001 985.88 579.1800000000001C985.61 578.97 985.26 578.86 984.92 578.8900000000001L982.66 578.8900000000001Z " fill="#ffffff" fill-opacity="1" transform="matrix(1,0,0,1,-981,-569)"></path><path id="SvgjsPath1027" d="M989.01 574.33C989.01 574.1500000000001 989.16 574.01 989.33 574.01L990.32 574.01C990.5 574.01 990.6500000000001 574.15 990.6500000000001 574.33L990.6500000000001 577.32L992.96 577.32C993.32 577.3100000000001 993.6800000000001 577.37 994.02 577.5C994.64 577.73 995.13 578.21 995.36 578.82C995.49 579.1600000000001 995.5600000000001 579.5200000000001 995.5500000000001 579.88C995.5500000000001 580.22 995.5000000000001 580.56 995.3800000000001 580.88C995.2700000000001 581.18 995.1000000000001 581.46 994.8800000000001 581.6899999999999C994.6500000000001 581.93 994.3800000000001 582.1199999999999 994.0700000000002 582.2399999999999C993.7200000000001 582.3799999999999 993.3500000000001 582.4499999999999 992.9700000000001 582.4399999999999L989.3300000000002 582.4399999999999C989.1500000000002 582.4399999999999 989.0000000000001 582.3 989.0000000000001 582.1199999999999ZM990.65 580.96L992.7099999999999 580.96C993.04 580.99 993.3699999999999 580.88 993.6099999999999 580.6500000000001C993.9899999999999 580.2300000000001 993.9899999999999 579.5900000000001 993.6099999999999 579.1600000000001C993.3699999999999 578.94 993.0399999999998 578.82 992.7099999999999 578.8500000000001L990.65 578.8500000000001ZM996.36 574.01C996.1800000000001 574.01 996.03 574.15 996.03 574.33L996.03 582.1500000000001C996.03 582.32 996.18 582.4700000000001 996.36 582.4700000000001L997.35 582.4700000000001C997.53 582.4700000000001 997.6700000000001 582.3200000000002 997.6800000000001 582.1500000000001L997.6800000000001 574.33C997.6700000000001 574.1500000000001 997.5300000000001 574 997.35 574Z " fill="#ffffff" fill-opacity="1" transform="matrix(1,0,0,1,-981,-569)"></path><path id="SvgjsPath1028" d="M1000.33 582.47C1000.1500000000001 582.47 1000 582.32 1000 582.15L1000 574.3299999999999C1000 574.15 1000.15 573.9999999999999 1000.33 573.9999999999999L1005.6500000000001 573.9999999999999C1005.83 573.9999999999999 1005.9800000000001 574.1499999999999 1005.9800000000001 574.3299999999999L1005.9800000000001 575.18C1005.9800000000001 575.3599999999999 1005.8300000000002 575.51 1005.6500000000001 575.51L1001.6400000000001 575.51L1001.6400000000001 577.31L1003.95 577.31C1004.3100000000001 577.3 1004.6800000000001 577.3699999999999 1005.01 577.5C1005.63 577.73 1006.12 578.21 1006.35 578.82C1006.48 579.1500000000001 1006.5500000000001 579.5100000000001 1006.5400000000001 579.87C1006.5500000000001 580.21 1006.4900000000001 580.55 1006.3800000000001 580.87C1006.2700000000001 581.17 1006.0900000000001 581.45 1005.8700000000001 581.68C1005.6500000000001 581.92 1005.3700000000001 582.1099999999999 1005.0700000000002 582.2299999999999C1004.7100000000002 582.3699999999999 1004.3400000000001 582.4399999999999 1003.9600000000002 582.4399999999999ZM1001.64 580.96L1003.6999999999999 580.96C1004.04 580.99 1004.3699999999999 580.88 1004.6099999999999 580.6500000000001C1004.9899999999999 580.2300000000001 1004.9899999999999 579.5900000000001 1004.6099999999999 579.1600000000001C1004.3699999999999 578.94 1004.0399999999998 578.82 1003.6999999999999 578.8500000000001L1001.65 578.8500000000001Z " fill="#ffffff" fill-opacity="1" transform="matrix(1,0,0,1,-981,-569)"></path><path id="SvgjsPath1029" d="M1008.26 576.02C1008.4 575.63 1008.63 575.28 1008.92 574.98C1009.24 574.6700000000001 1009.61 574.4200000000001 1010.02 574.26C1010.52 574.08 1011.05 573.99 1011.5799999999999 574C1012.1099999999999 573.99 1012.6299999999999 574.08 1013.1299999999999 574.25C1013.5499999999998 574.41 1013.9199999999998 574.66 1014.2299999999999 574.98C1014.5199999999999 575.27 1014.7499999999999 575.63 1014.8999999999999 576.02C1015.0599999999998 576.43 1015.1499999999999 576.86 1015.1699999999998 577.3C1015.1699999999998 577.4599999999999 1015.1699999999998 577.62 1015.1699999999998 577.81C1015.1699999999998 577.9899999999999 1015.1699999999998 578.18 1015.1699999999998 578.38C1015.1699999999998 578.58 1015.1699999999998 578.77 1015.1699999999998 578.96C1015.1699999999998 579.1500000000001 1015.1699999999998 579.32 1015.1699999999998 579.47C1015.1499999999999 579.9100000000001 1015.0599999999998 580.34 1014.9099999999999 580.75C1014.7699999999999 581.14 1014.5499999999998 581.49 1014.2599999999999 581.79C1013.9499999999999 582.0999999999999 1013.5699999999998 582.3499999999999 1013.1499999999999 582.51C1012.1399999999999 582.85 1011.0499999999998 582.85 1010.0399999999998 582.51C1009.6199999999999 582.35 1009.2499999999999 582.1 1008.9399999999998 581.79C1008.6499999999999 581.49 1008.4199999999998 581.14 1008.2799999999999 580.75C1008.1199999999999 580.34 1008.0399999999998 579.91 1008.0099999999999 579.47C1008.0099999999999 579.3100000000001 1008.0099999999999 579.15 1008.0099999999999 578.96C1008.0099999999999 578.7800000000001 1008.0099999999999 578.59 1008.0099999999999 578.38C1008.0099999999999 578.1899999999999 1008.0099999999999 577.99 1008.0099999999999 577.81C1008.0099999999999 577.6199999999999 1008.0099999999999 577.4499999999999 1007.9999999999999 577.3C1008.0199999999999 576.8599999999999 1008.1099999999999 576.43 1008.2599999999999 576.02ZM1013.52 577.36C1013.52 576.3000000000001 1012.66 575.4300000000001 1011.5799999999999 575.4300000000001C1010.5099999999999 575.4300000000001 1009.6399999999999 576.3000000000001 1009.6399999999999 577.36C1009.6399999999999 577.67 1009.6399999999999 578.01 1009.6399999999999 578.38C1009.6399999999999 578.76 1009.6399999999999 579.1 1009.6399999999999 579.41C1009.6399999999999 579.92 1009.8499999999999 580.4 1010.2099999999999 580.75C1011.0099999999999 581.4 1012.16 581.4 1012.9599999999999 580.75C1013.3199999999999 580.4 1013.5199999999999 579.92 1013.5199999999999 579.41C1013.5199999999999 579.1 1013.5199999999999 578.76 1013.5199999999999 578.38C1013.5199999999999 578.01 1013.5299999999999 577.67 1013.5299999999999 577.36Z " fill="#ffffff" fill-opacity="1" transform="matrix(1,0,0,1,-981,-569)"></path><path id="SvgjsPath1030" d="M1019.6 574C1020.4200000000001 573.96 1021.24 574.22 1021.89 574.73C1022.46 575.24 1022.76 575.99 1022.6999999999999 576.75C1022.7599999999999 577.51 1022.4599999999999 578.26 1021.89 578.79C1021.24 579.3 1020.42 579.55 1019.6 579.51L1017.64 579.51L1017.64 582.21C1017.64 582.39 1017.5 582.5300000000001 1017.3199999999999 582.5300000000001L1016.3299999999999 582.5300000000001C1016.15 582.5300000000001 1015.9999999999999 582.3900000000001 1015.9999999999999 582.21L1015.9999999999999 574.33C1015.9999999999999 574.1500000000001 1016.1499999999999 574.01 1016.3299999999999 574ZM1017.64 577.94L1019.54 577.94C1019.92 577.96 1020.31 577.86 1020.64 577.6700000000001C1020.9399999999999 577.44 1021.1 577.08 1021.06 576.71C1021.0999999999999 576.35 1020.9399999999999 575.99 1020.64 575.77C1020.31 575.59 1019.92 575.5 1019.54 575.51L1017.64 575.51Z " fill="#ffffff" fill-opacity="1" transform="matrix(1,0,0,1,-981,-569)"></path><path id="SvgjsPath1031" d="M1024.01 574.33C1024.01 574.1500000000001 1024.16 574.01 1024.33 574.01L1025.32 574.01C1025.5 574.01 1025.6499999999999 574.15 1025.6499999999999 574.33L1025.6499999999999 577.32L1027.9599999999998 577.32C1028.3199999999997 577.3100000000001 1028.6799999999998 577.37 1029.0199999999998 577.5C1029.6399999999996 577.73 1030.1299999999997 578.21 1030.3599999999997 578.82C1030.4899999999998 579.1600000000001 1030.5599999999997 579.5200000000001 1030.5499999999997 579.88C1030.5499999999997 580.22 1030.4999999999998 580.56 1030.3799999999997 580.88C1030.2699999999998 581.18 1030.0999999999997 581.46 1029.8799999999997 581.6899999999999C1029.6499999999996 581.93 1029.3799999999997 582.1199999999999 1029.0699999999997 582.2399999999999C1028.7199999999998 582.3799999999999 1028.3499999999997 582.4499999999999 1027.9699999999998 582.4399999999999L1024.3299999999997 582.4399999999999C1024.1499999999996 582.4399999999999 1023.9999999999997 582.3 1023.9999999999997 582.1199999999999ZM1025.65 580.96L1027.71 580.96C1028.04 580.99 1028.3700000000001 580.88 1028.6100000000001 580.6500000000001C1028.9900000000002 580.2300000000001 1028.9900000000002 579.5900000000001 1028.6100000000001 579.1600000000001C1028.3700000000001 578.94 1028.0400000000002 578.82 1027.71 578.8500000000001L1025.65 578.8500000000001ZM1031.36 574.01C1031.1799999999998 574.01 1031.03 574.15 1031.03 574.33L1031.03 582.1500000000001C1031.03 582.32 1031.18 582.4700000000001 1031.36 582.4700000000001L1032.35 582.4700000000001C1032.53 582.4700000000001 1032.6699999999998 582.3200000000002 1032.6799999999998 582.1500000000001L1032.6799999999998 574.33C1032.6699999999998 574.1500000000001 1032.5299999999997 574 1032.35 574Z " fill="#ffffff" fill-opacity="1" transform="matrix(1,0,0,1,-981,-569)"></path><path id="SvgjsPath1032" d="M981 589L981 587L1033 587L1033 589Z " fill="#ffffff" fill-opacity="1" transform="matrix(1,0,0,1,-981,-569)"></path><path id="SvgjsPath1033" d="M981 594L981 592L1033 592L1033 594Z " fill="#ffffff" fill-opacity="1" transform="matrix(1,0,0,1,-981,-569)"></path></svg>