<svg id="SvgjsSvg1032" xmlns="http://www.w3.org/2000/svg" version="1.1" xmlns:xlink="http://www.w3.org/1999/xlink" xmlns:svgjs="http://svgjs.com/svgjs" width="22" height="20"><defs id="SvgjsDefs1033"></defs><path id="SvgjsPath1034" d="M468 470.7L468 468L475.27 468L475.27 470.7 " fill-opacity="0" stroke-dasharray="0" stroke-linejoin="miter" stroke-linecap="butt" stroke-opacity="1" stroke="#5d6ab0" stroke-miterlimit="50" stroke-width="2" transform="matrix(1,0,0,1,-461,-467.5)"></path><path id="SvgjsPath1035" d="M470.18 480.9L462 480.9L462 471L482 471L482 480.9L473.82 480.9 " fill-opacity="0" stroke-dasharray="0" stroke-linejoin="miter" stroke-linecap="butt" stroke-opacity="1" stroke="#5d6ab0" stroke-miterlimit="50" stroke-width="2" transform="matrix(1,0,0,1,-461,-467.5)"></path><path id="SvgjsPath1036" d="M481.18 481L481.18 486.4L463 486.4L463 481 " fill-opacity="0" stroke-dasharray="0" stroke-linejoin="miter" stroke-linecap="butt" stroke-opacity="1" stroke="#5d6ab0" stroke-miterlimit="50" stroke-width="2" transform="matrix(1,0,0,1,-461,-467.5)"></path><path id="SvgjsPath1037" d="M470 483L470 479L474 479L474 483Z " fill-opacity="0" stroke-dasharray="0" stroke-linejoin="miter" stroke-linecap="butt" stroke-opacity="1" stroke="#5d6ab0" stroke-miterlimit="50" stroke-width="2" transform="matrix(1,0,0,1,-461,-467.5)"></path></svg>
