<svg id="SvgjsSvg1000" xmlns="http://www.w3.org/2000/svg" version="1.1" xmlns:xlink="http://www.w3.org/1999/xlink" xmlns:svgjs="http://svgjs.com/svgjs" width="22" height="25"><defs id="SvgjsDefs1001"></defs><path id="SvgjsPath1007" d="M72.26 552.53C71.87 552.0799999999999 71.56 551.56 71.34 551L67 553.61C67.39 554.0600000000001 67.7 554.57 67.92 555.14Z " fill="#ffffff" fill-opacity="1" transform="matrix(1,0,0,1,-58,-545)"></path><path id="SvgjsPath1008" d="M75 555L75 560.52C75.29 560.47 75.59 560.4399999999999 75.89 560.4399999999999C76.2 560.4399999999999 76.49 560.4699999999999 76.79 560.52L76.79 555C76.49000000000001 555.05 76.2 555.08 75.89 555.08C75.59 555.08 75.29 555.0500000000001 75 555Z " fill="#ffffff" fill-opacity="1" transform="matrix(1,0,0,1,-58,-545)"></path><path id="SvgjsPath1009" d="M67.92 559C67.7 559.56 67.39 560.08 67 560.53L71.34 563.14C71.56 562.5699999999999 71.88000000000001 562.06 72.26 561.61Z " fill="#ffffff" fill-opacity="1" transform="matrix(1,0,0,1,-58,-545)"></path><path id="SvgjsPath1010" d="M71 549.46C71 551.9300000000001 73 553.9300000000001 75.46 553.9300000000001C77.92999999999999 553.9300000000001 79.92999999999999 551.9300000000001 79.92999999999999 549.46C79.92999999999999 547 77.92999999999999 545 75.46 545C73 545 71 547 71 549.46ZM72.79 549.46C72.79 547.99 73.99000000000001 546.7900000000001 75.46000000000001 546.7900000000001C76.94000000000001 546.7900000000001 78.14000000000001 547.9900000000001 78.14000000000001 549.46C78.14000000000001 550.94 76.94000000000001 552.14 75.46000000000001 552.14C73.99000000000001 552.14 72.79 550.9399999999999 72.79 549.46Z " fill="#ffffff" fill-opacity="1" transform="matrix(1,0,0,1,-58,-545)"></path><path id="SvgjsPath1011" d="M71 565.46C71 567.9300000000001 73 569.9300000000001 75.46 569.9300000000001C77.92999999999999 569.9300000000001 79.92999999999999 567.9300000000001 79.92999999999999 565.46C79.92999999999999 563 77.92999999999999 561 75.46 561C73 561 71 563 71 565.46ZM72.79 565.46C72.79 563.99 73.99000000000001 562.7900000000001 75.46000000000001 562.7900000000001C76.94000000000001 562.7900000000001 78.14000000000001 563.9900000000001 78.14000000000001 565.46C78.14000000000001 566.94 76.94000000000001 568.14 75.46000000000001 568.14C73.99000000000001 568.14 72.79 566.9399999999999 72.79 565.46Z " fill="#ffffff" fill-opacity="1" transform="matrix(1,0,0,1,-58,-545)"></path><path id="SvgjsPath1012" d="M58 557.46C58 559.9300000000001 60 561.9300000000001 62.46 561.9300000000001C64.93 561.9300000000001 66.93 559.9300000000001 66.93 557.46C66.93 555 64.93 553 62.46000000000001 553C60.00000000000001 553 58.00000000000001 555 58.00000000000001 557.46ZM59.79 557.46C59.79 555.99 60.99 554.7900000000001 62.46 554.7900000000001C63.94 554.7900000000001 65.14 555.9900000000001 65.14 557.46C65.14 558.94 63.94 560.14 62.46 560.14C60.99 560.14 59.79 558.9399999999999 59.79 557.46Z " fill="#ffffff" fill-opacity="1" transform="matrix(1,0,0,1,-58,-545)"></path></svg>