<?xml version="1.0" encoding="utf-8"?>
<!-- Generator: Adobe Illustrator 19.2.1, SVG Export Plug-In . SVG Version: 6.00 Build 0)  -->
<svg version="1.1" id="Layer_1" xmlns="http://www.w3.org/2000/svg" xmlns:xlink="http://www.w3.org/1999/xlink" x="0px" y="0px"
	 viewBox="0 0 141.7 198.4" style="enable-background:new 0 0 141.7 198.4;" xml:space="preserve">
<style type="text/css">
	.st0{fill:#444C78;}
	.st1{fill:#FFFFFF;}
</style>
<rect class="st0" width="141.7" height="141.7"/>
<g>
	<path class="st0" d="M-0.1,155.9h1.4v6.4l0,1.2h0.1c0.3-0.6,0.5-0.9,0.9-1.5l3.8-6.1h1.5v9.5H6v-6.4l0-1.2H6
		c-0.4,0.7-0.6,1-0.9,1.5l-3.8,6.1h-1.5V155.9z"/>
	<path class="st0" d="M10.2,155.9h1.4v4h4.5v-4h1.4v9.5h-1.4v-4.3h-4.5v4.3h-1.4V155.9z"/>
	<path class="st0" d="M25.3,156.7h0.4c1.2,0,2.1,0.4,2.6,0.8c0.8,0.6,1.4,1.6,1.4,2.9c0,1.2-0.5,2.3-1.3,2.9
		c-0.3,0.3-1.2,0.9-2.7,0.9h-0.4v1.2h-1.4v-1.2h-0.4c-1.5,0-2.4-0.6-2.7-0.9c-0.8-0.6-1.3-1.7-1.3-2.9c0-1.3,0.6-2.3,1.4-2.9
		c0.5-0.4,1.4-0.8,2.6-0.8h0.4v-1.2h1.4V156.7z M23.6,157.9c-0.4,0-1.2,0.1-1.8,0.6c-0.4,0.3-0.8,0.9-0.8,2c0,1,0.3,1.6,0.7,2
		c0.6,0.6,1.3,0.7,1.9,0.7h0.4v-5.3H23.6z M25.3,163.1h0.4c0.5,0,1.3-0.1,1.9-0.7c0.4-0.4,0.7-1,0.7-2c0-1.1-0.4-1.7-0.8-2
		c-0.6-0.6-1.3-0.6-1.8-0.6h-0.4V163.1z"/>
	<path class="st0" d="M39.4,157.2c0.7,0.8,1.2,2,1.2,3.4c0,1.5-0.5,2.7-1.2,3.4c-0.6,0.7-1.6,1.4-3.4,1.4s-2.8-0.7-3.4-1.4
		c-0.7-0.8-1.2-2-1.2-3.4c0-1.4,0.5-2.6,1.2-3.4c0.8-0.9,1.9-1.4,3.4-1.4S38.7,156.3,39.4,157.2z M33.8,158
		c-0.5,0.6-0.8,1.6-0.8,2.6c0,0.8,0.2,1.9,0.8,2.6c0.5,0.6,1.2,1.1,2.3,1.1c1.1,0,1.9-0.5,2.3-1.1c0.6-0.7,0.8-1.8,0.8-2.6
		c0-1-0.3-2-0.8-2.6c-0.4-0.6-1.2-1.1-2.3-1.1C35,157,34.2,157.5,33.8,158z"/>
	<path class="st0" d="M42.8,155.9h2.5c0.7,0,1.8,0.1,2.6,0.7c0.5,0.4,0.9,1,0.9,2.1c0,0.9-0.3,1.5-0.6,1.9c-0.8,0.9-2.1,1-2.7,1
		h-1.3v3.8h-1.4V155.9z M44.2,160.4h1.3c0.5,0,1.1-0.2,1.4-0.5c0.2-0.2,0.5-0.6,0.5-1.2c0-0.6-0.2-1-0.6-1.3c-0.5-0.4-1-0.4-1.5-0.4
		h-1.1V160.4z"/>
	<path class="st0" d="M50.8,155.9H53l3,7.9l2.9-7.9h2.2v9.5h-1.4v-8.2h0l-3.1,8.2h-1.3l-3.1-8.2h0v8.2h-1.4V155.9z"/>
	<path class="st0" d="M67.1,155.9h1.4l4,9.5H71l-1-2.4h-4.6l-1,2.4H63L67.1,155.9z M67.7,157.2l-1.9,4.7h3.8L67.7,157.2z"/>
	<path class="st0" d="M75.7,155.9v8.3h4.2v-8.3h1.3v8.3h1.1v3.3H81v-2.1h-6.6v-9.5H75.7z"/>
	<path class="st0" d="M84.2,155.9h1.4v6.4l0,1.2h0.1c0.3-0.6,0.5-0.9,0.9-1.5l3.8-6.1h1.5v9.5h-1.4v-6.4l0-1.2h-0.1
		c-0.4,0.7-0.6,1-0.9,1.5l-3.8,6.1h-1.5V155.9z"/>
	<path class="st0" d="M102,157.2c0.7,0.8,1.2,2,1.2,3.4c0,1.5-0.5,2.7-1.2,3.4c-0.6,0.7-1.6,1.4-3.4,1.4s-2.8-0.7-3.4-1.4
		c-0.7-0.8-1.2-2-1.2-3.4c0-1.4,0.5-2.6,1.2-3.4c0.8-0.9,1.9-1.4,3.4-1.4C100.1,155.8,101.2,156.3,102,157.2z M96.3,158
		c-0.5,0.6-0.8,1.6-0.8,2.6c0,0.8,0.2,1.9,0.8,2.6c0.5,0.6,1.2,1.1,2.3,1.1c1.1,0,1.9-0.5,2.3-1.1c0.6-0.7,0.8-1.8,0.8-2.6
		c0-1-0.3-2-0.8-2.6c-0.4-0.6-1.2-1.1-2.3-1.1S96.7,157.5,96.3,158z"/>
	<path class="st0" d="M105.4,155.9h1.4v4h4.5v-4h1.4v9.5h-1.4v-4.3h-4.5v4.3h-1.4V155.9z"/>
	<path class="st0" d="M115.4,155.9h1.4v4h4.5v-4h1.4v9.5h-1.4v-4.3h-4.5v4.3h-1.4V155.9z"/>
	<path class="st0" d="M132.8,157.2c0.7,0.8,1.2,2,1.2,3.4c0,1.5-0.5,2.7-1.2,3.4c-0.6,0.7-1.6,1.4-3.4,1.4c-1.7,0-2.8-0.7-3.4-1.4
		c-0.7-0.8-1.2-2-1.2-3.4c0-1.4,0.5-2.6,1.2-3.4c0.8-0.9,1.9-1.4,3.4-1.4C130.9,155.8,132,156.3,132.8,157.2z M127.1,158
		c-0.5,0.6-0.8,1.6-0.8,2.6c0,0.8,0.2,1.9,0.8,2.6c0.5,0.6,1.2,1.1,2.3,1.1c1.1,0,1.9-0.5,2.3-1.1c0.6-0.7,0.8-1.8,0.8-2.6
		c0-1-0.3-2-0.8-2.6c-0.4-0.6-1.2-1.1-2.3-1.1C128.3,157,127.6,157.5,127.1,158z"/>
	<path class="st0" d="M136.3,155.9h5.3v1.2h-3.9v2.8h3.6v1.2h-3.6v3.1h3.9v1.2h-5.3V155.9z"/>
</g>
<g>
	<path class="st0" d="M3.6,174.8h1.4l4,9.5H7.6l-1-2.4H2l-1,2.4h-1.4L3.6,174.8z M4.3,176.1l-1.9,4.7h3.8L4.3,176.1z"/>
	<path class="st0" d="M11.1,174.8h5v1.2h-3.7v8.3h-1.4V174.8z"/>
	<path class="st0" d="M18.3,174.8h5.3v1.2h-3.9v2.8h3.6v1.2h-3.6v3.1h3.9v1.2h-5.3V174.8z"/>
	<path class="st0" d="M26.2,174.8h1.3v4h4.5v-4h1.4v9.5h-1.4V180h-4.5v4.3h-1.3V174.8z"/>
	<path class="st0" d="M38.5,176h-2.9v-1.2h7.2v1.2h-2.9v8.3h-1.3V176z"/>
	<path class="st0" d="M51.1,176.4c-0.6-0.4-1.3-0.5-1.9-0.5c-0.8,0-1.7,0.3-2.3,0.8c-0.8,0.6-1.3,1.6-1.3,2.9c0,1.1,0.4,2,0.9,2.5
		c0.6,0.8,1.6,1.2,2.9,1.2c0.5,0,1.1-0.1,1.8-0.4l0.1,1.3c-0.8,0.3-1.4,0.3-2,0.3c-1.3,0-2.7-0.3-3.8-1.4c-0.7-0.7-1.3-1.9-1.3-3.5
		c0-1,0.2-2.6,1.8-3.8c1-0.7,2.2-1,3.3-1c1,0,1.6,0.2,2.1,0.4L51.1,176.4z"/>
	<path class="st0" d="M55.9,176H53v-1.2h7.2v1.2h-2.9v8.3h-1.3V176z"/>
	<path class="st0" d="M62.4,174.8h2.6c0.8,0,1.8,0.1,2.5,0.6c0.5,0.4,0.8,1,0.8,1.7c0,0.4-0.1,1-0.5,1.4c-0.3,0.4-1,0.7-1.5,0.8v0
		c0.6,0,1.2,0.3,1.6,0.6c0.4,0.4,0.6,0.9,0.6,1.6c0,0.9-0.4,1.5-0.7,1.8c-0.8,0.7-2.1,0.7-2.9,0.7h-2.5V174.8z M63.7,178.8h0.7
		c0.6,0,1.6,0,2.1-0.5c0.3-0.3,0.4-0.8,0.4-1c0-0.5-0.1-0.8-0.5-1.1c-0.3-0.3-0.8-0.4-1.3-0.4h-1.4V178.8z M63.7,183.2h1
		c0.6,0,1.5,0,1.9-0.5c0.2-0.2,0.4-0.5,0.4-1c0-0.6-0.2-1.1-0.8-1.4c-0.5-0.2-1.1-0.3-1.6-0.3h-0.9V183.2z"/>
	<path class="st0" d="M78.5,176.1c0.7,0.8,1.2,2,1.2,3.4c0,1.5-0.5,2.7-1.2,3.4c-0.6,0.7-1.6,1.4-3.4,1.4s-2.8-0.7-3.4-1.4
		c-0.7-0.8-1.2-2-1.2-3.4c0-1.4,0.5-2.6,1.2-3.4c0.8-0.9,1.9-1.4,3.4-1.4C76.6,174.7,77.7,175.2,78.5,176.1z M72.8,176.9
		c-0.5,0.6-0.8,1.6-0.8,2.6c0,0.8,0.2,1.9,0.8,2.6c0.5,0.6,1.2,1.1,2.3,1.1c1.1,0,1.9-0.5,2.3-1.1c0.6-0.7,0.8-1.8,0.8-2.6
		c0-1-0.3-2-0.8-2.6c-0.4-0.6-1.2-1.1-2.3-1.1C74,175.9,73.2,176.4,72.8,176.9z"/>
	<path class="st0" d="M86.1,174.8h2.5c0.7,0,1.8,0.1,2.6,0.7c0.5,0.4,0.9,1,0.9,2.1c0,0.9-0.3,1.5-0.6,1.9c-0.8,0.9-2.1,1-2.7,1
		h-1.3v3.8h-1.3V174.8z M87.5,179.3h1.3c0.5,0,1.1-0.2,1.4-0.5c0.2-0.2,0.5-0.6,0.5-1.2c0-0.6-0.2-1-0.6-1.3c-0.5-0.4-1-0.4-1.5-0.4
		h-1.1V179.3z"/>
	<path class="st0" d="M102,176.1c0.7,0.8,1.2,2,1.2,3.4c0,1.5-0.5,2.7-1.2,3.4c-0.6,0.7-1.6,1.4-3.4,1.4s-2.8-0.7-3.4-1.4
		c-0.7-0.8-1.2-2-1.2-3.4c0-1.4,0.5-2.6,1.2-3.4c0.8-0.9,1.9-1.4,3.4-1.4C100.1,174.7,101.2,175.2,102,176.1z M96.3,176.9
		c-0.5,0.6-0.8,1.6-0.8,2.6c0,0.8,0.2,1.9,0.8,2.6c0.5,0.6,1.2,1.1,2.3,1.1c1.1,0,1.8-0.5,2.3-1.1c0.6-0.7,0.8-1.8,0.8-2.6
		c0-1-0.3-2-0.8-2.6c-0.4-0.6-1.2-1.1-2.3-1.1S96.7,176.4,96.3,176.9z"/>
	<path class="st0" d="M112.3,176.4c-0.6-0.4-1.3-0.5-1.9-0.5c-0.8,0-1.7,0.3-2.3,0.8c-0.8,0.6-1.3,1.6-1.3,2.9c0,1.1,0.4,2,0.9,2.5
		c0.6,0.8,1.6,1.2,2.9,1.2c0.5,0,1.1-0.1,1.8-0.4l0.1,1.3c-0.8,0.3-1.4,0.3-2,0.3c-1.3,0-2.7-0.3-3.8-1.4c-0.7-0.7-1.3-1.9-1.3-3.5
		c0-1,0.2-2.6,1.8-3.8c1-0.7,2.2-1,3.3-1c1,0,1.6,0.2,2.1,0.4L112.3,176.4z"/>
	<path class="st0" d="M121,176.4c-0.6-0.4-1.3-0.5-1.9-0.5c-0.8,0-1.7,0.3-2.3,0.8c-0.8,0.6-1.3,1.6-1.3,2.9c0,1.1,0.4,2,0.9,2.5
		c0.6,0.8,1.6,1.2,2.9,1.2c0.5,0,1.1-0.1,1.8-0.4l0.1,1.3c-0.8,0.3-1.4,0.3-2,0.3c-1.3,0-2.7-0.3-3.8-1.4c-0.7-0.7-1.3-1.9-1.3-3.5
		c0-1,0.2-2.6,1.8-3.8c1-0.7,2.2-1,3.3-1c1,0,1.6,0.2,2.1,0.4L121,176.4z"/>
	<path class="st0" d="M123.6,174.8h1.3v6.4l0,1.2h0.1c0.3-0.6,0.5-0.9,0.8-1.5l3.8-6.1h1.5v9.5h-1.4v-6.4l0-1.2h-0.1
		c-0.4,0.7-0.6,1-0.9,1.5l-3.8,6.1h-1.5V174.8z"/>
	<path class="st0" d="M134.2,174.8h1.3v6.4l0,1.2h0.1c0.3-0.6,0.5-0.9,0.8-1.5l3.8-6.1h1.5v9.5h-1.4v-6.4l0-1.2h-0.1
		c-0.4,0.7-0.6,1-0.9,1.5l-3.8,6.1h-1.5V174.8z"/>
</g>
<polygon class="st1" points="8.9,88.9 41,88.9 36.6,96.5 28.2,96.5 28.2,121.6 20.1,121.6 20.1,96.5 8.9,96.5 "/>
<path class="st1" d="M85.5,96.5c-0.9,0-1.6,0.6-1.6,1.5v14.5c0,1,0.7,1.5,1.6,1.5h16.7v7.6H85.5c-5.8,0-9.6-3.5-9.6-9.1V98.1
	c0-5.5,3.8-9.1,9.6-9.1h18.7l-4.4,7.6H85.5z"/>
<path class="st1" d="M61.4,88.9h-15L42,96.5h19.4c1,0,1.5,0.6,1.5,1.5v3.5H50.3c-5.8,0-10,4.3-10,10c0,5.8,4.3,10,10,10H71V98.1
	C71,92.5,67.2,88.9,61.4,88.9 M62.9,114.3H51.3c-1.7,0-2.9-1.2-2.9-2.9c0-1.7,1.2-2.9,2.9-2.9h11.6V114.3z"/>
<path class="st1" d="M115.4,96.5c-0.9,0-1.6,0.6-1.6,1.5v14.5c0,1,0.7,1.5,1.6,1.5H132v7.6h-16.7c-5.8,0-9.6-3.5-9.6-9.1V98.1
	c0-5.5,3.8-9.1,9.6-9.1H134l-4.4,7.6H115.4z"/>
</svg>
