<svg id="SvgjsSvg1034" xmlns="http://www.w3.org/2000/svg" version="1.1" xmlns:xlink="http://www.w3.org/1999/xlink" xmlns:svgjs="http://svgjs.com/svgjs" width="40" height="40"><defs id="SvgjsDefs1035"></defs><path id="SvgjsPath1036" d="M1176 569.53L1215.53 569.53L1215.53 530L1176 530ZM1178.48 554.81L1187.44 554.81L1186.21 556.93L1183.8600000000001 556.93L1183.8600000000001 563.93L1181.6200000000001 563.93L1181.6200000000001 556.93L1178.48 556.93ZM1193.13 554.81C1194.74 554.81 1195.8000000000002 555.81 1195.8000000000002 557.3499999999999L1195.8000000000002 563.93L1190.0400000000002 563.93C1188.4200000000003 563.93 1187.2400000000002 562.7399999999999 1187.2400000000002 561.13C1187.2400000000002 559.51 1188.4200000000003 558.33 1190.0400000000002 558.33L1193.5500000000002 558.33L1193.5500000000002 557.35C1193.5500000000002 557.09 1193.4 556.9300000000001 1193.13 556.9300000000001L1187.71 556.9300000000001L1188.93 554.8100000000001ZM1199.85 556.93C1199.6 556.93 1199.4199999999998 557.0899999999999 1199.4199999999998 557.3499999999999L1199.4199999999998 561.3899999999999C1199.4199999999998 561.6599999999999 1199.6 561.8099999999998 1199.85 561.8099999999998L1204.5 561.8099999999998L1204.5 563.9299999999998L1199.85 563.9299999999998C1198.23 563.9299999999998 1197.1699999999998 562.9499999999998 1197.1699999999998 561.3899999999999L1197.1699999999998 557.3499999999999C1197.1699999999998 555.81 1198.2299999999998 554.81 1199.85 554.81L1205.06 554.81L1203.83 556.93ZM1193.55 560.26L1190.31 560.26C1189.85 560.26 1189.51 560.6 1189.51 561.0699999999999C1189.51 561.53 1189.85 561.8699999999999 1190.31 561.8699999999999L1193.55 561.8699999999999ZM1208.18 556.93C1207.92 556.93 1207.74 557.0899999999999 1207.74 557.3499999999999L1207.74 561.3899999999999C1207.74 561.6599999999999 1207.92 561.8099999999998 1208.18 561.8099999999998L1212.8200000000002 561.8099999999998L1212.8200000000002 563.9299999999998L1208.18 563.9299999999998C1206.55 563.9299999999998 1205.5 562.9499999999998 1205.5 561.3899999999999L1205.5 557.3499999999999C1205.5 555.81 1206.55 554.81 1208.18 554.81L1213.38 554.81L1212.16 556.93Z " fill="#ffffff" fill-opacity="1" transform="matrix(1,0,0,1,-1176,-530)"></path></svg>