<svg id="SvgjsSvg1057" xmlns="http://www.w3.org/2000/svg" version="1.1" xmlns:xlink="http://www.w3.org/1999/xlink" xmlns:svgjs="http://svgjs.com/svgjs" width="40" height="40"><defs id="SvgjsDefs1058"></defs><path id="SvgjsPath1059" d="M1176 569.53L1215.53 569.53L1215.53 530L1176 530Z " fill="#2d2667" fill-opacity="1" transform="matrix(1,0,0,1,-1176,-530)"></path><path id="SvgjsPath1060" d="M1178 555L1186.96 555L1185.74 557.12L1183.38 557.12L1183.38 564.12L1181.14 564.12L1181.14 557.12L1178 557.12Z " fill="#fefefe" fill-opacity="1" transform="matrix(1,0,0,1,-1176,-530)"></path><path id="SvgjsPath1061" d="M1199.68 557.12C1199.43 557.12 1199.24 557.28 1199.24 557.55L1199.24 561.5899999999999C1199.24 561.8499999999999 1199.43 561.9999999999999 1199.68 561.9999999999999L1204.3200000000002 561.9999999999999L1204.3200000000002 564.1199999999999L1199.68 564.1199999999999C1198.0600000000002 564.1199999999999 1197 563.1399999999999 1197 561.5899999999999L1197 557.55C1197 556.01 1198.06 555 1199.68 555L1204.88 555L1203.66 557.12Z " fill="#fefefe" fill-opacity="1" transform="matrix(1,0,0,1,-1176,-530)"></path><path id="SvgjsPath1062" d="M1193.32 562.06L1190.08 562.06C1189.61 562.06 1189.28 561.7299999999999 1189.28 561.26C1189.28 560.79 1189.61 560.45 1190.08 560.45L1193.32 560.45ZM1188.7 555L1187.47 557.12L1192.89 557.12C1193.16 557.12 1193.3200000000002 557.28 1193.3200000000002 557.55L1193.3200000000002 558.52L1189.8000000000002 558.52C1188.1900000000003 558.52 1187.0000000000002 559.71 1187.0000000000002 561.3199999999999C1187.0000000000002 562.93 1188.1900000000003 564.1199999999999 1189.8000000000002 564.1199999999999L1195.5600000000002 564.1199999999999L1195.5600000000002 557.5499999999998C1195.5600000000002 556.0099999999999 1194.5100000000002 554.9999999999999 1192.89 554.9999999999999Z " fill="#fefefe" fill-opacity="1" transform="matrix(1,0,0,1,-1176,-530)"></path><path id="SvgjsPath1063" d="M1207.68 557.12C1207.43 557.12 1207.24 557.28 1207.24 557.55L1207.24 561.5899999999999C1207.24 561.8499999999999 1207.43 561.9999999999999 1207.68 561.9999999999999L1212.3200000000002 561.9999999999999L1212.3200000000002 564.1199999999999L1207.68 564.1199999999999C1206.0600000000002 564.1199999999999 1205 563.1399999999999 1205 561.5899999999999L1205 557.55C1205 556.01 1206.06 555 1207.68 555L1212.88 555L1211.66 557.12Z " fill="#fefefe" fill-opacity="1" transform="matrix(1,0,0,1,-1176,-530)"></path></svg>