<?xml version="1.0" encoding="UTF-8" standalone="no"?>
<svg width="15px" height="12px" viewBox="0 0 15 12" version="1.1" xmlns="http://www.w3.org/2000/svg" xmlns:xlink="http://www.w3.org/1999/xlink">
    <!-- Generator: Sketch 39.1 (31720) - http://www.bohemiancoding.com/sketch -->
    <title>Shape</title>
    <desc>Created with Sketch.</desc>
    <defs></defs>
    <g id="Page-1" stroke="none" stroke-width="1" fill="none" fill-rule="evenodd">
        <g id="main-6" transform="translate(-293.000000, -554.000000)" fill="#55AEF0">
            <g id="share-copy" transform="translate(125.000000, 551.000000)">
                <path d="M180.52641,4.77337417 C181.111503,4.42300477 181.559376,3.86726976 181.771647,3.20710313 C181.942912,2.6744632 180.617009,3.76717066 179.97151,3.89488953 C179.45461,3.34346446 178.719369,3 177.903864,3 C176.33933,3 175.070784,4.26854618 175.070784,5.83222223 C175.070784,6.05399272 175.095809,6.27059579 175.144143,6.47772149 C172.790009,6.35948 170.702528,5.23160509 169.305405,3.51775783 C169.061183,3.93543914 168.922249,4.42212473 168.922249,4.94164265 C168.922249,5.9245589 169.422767,6.79182866 170.182175,7.29922908 C169.717897,7.28370424 169.281238,7.15598538 168.898962,6.94369226 L168.898962,6.97907444 C168.898962,8.35117219 169.87583,9.49630946 171.171116,9.75693717 C170.933798,9.82079661 170.683551,9.85617879 170.424661,9.85617879 C170.241725,9.85617879 170.064814,9.83805896 169.891355,9.80353425 C170.25206,10.9296942 171.297978,11.7486294 172.537189,11.7710817 C171.568083,12.53049 170.346134,12.9818159 169.018918,12.9818159 C168.790243,12.9818159 168.564997,12.968006 168.343227,12.9429813 C166.758522,12.7641618 171.085707,14.2175749 172.685623,14.2175749 C177.897004,14.2175749 180.745631,9.90106092 180.745631,6.15756685 L180.736131,5.79081514 C181.292724,5.3938261 181.774242,4.89504557 182.153088,4.32721562 C182.42896,3.91372831 181.09943,4.70518223 180.52641,4.77337417 Z" id="Shape"></path>
            </g>
        </g>
    </g>
</svg>