<svg id="SvgjsSvg1013" xmlns="http://www.w3.org/2000/svg" version="1.1" xmlns:xlink="http://www.w3.org/1999/xlink" xmlns:svgjs="http://svgjs.com/svgjs" width="18.59999990463257" height="15.04416791328049">
    <defs id="SvgjsDefs1014">
        <clipPath id="SvgjsClipPath1017">
            <path
                id="SvgjsPath1016"
                d="M290.7 567.52208L290.7 552.47791L309.3 552.47791L309.3 567.52208ZM306.77 554.21C306.94 553.6700000000001 305.62 554.77 304.96999999999997 554.89C304.45 554.34 303.71999999999997 554 302.9 554C301.34 554 300.07 555.27 300.07 556.83C300.07 557.0500000000001 300.09999999999997 557.2700000000001 300.14 557.48C297.78999999999996 557.36 295.7 556.23 294.31 554.52C294.06 554.9399999999999 293.92 555.42 293.92 555.9399999999999C293.92 556.92 294.42 557.79 295.18 558.3C294.72 558.28 294.28000000000003 558.16 293.90000000000003 557.9399999999999L293.90000000000003 557.9799999999999C293.90000000000003 559.3499999999999 294.88000000000005 560.4999999999999 296.17 560.7599999999999C295.93 560.8199999999998 295.68 560.8599999999999 295.42 560.8599999999999C295.24 560.8599999999999 295.06 560.8399999999999 294.89000000000004 560.8C295.25000000000006 561.93 296.30000000000007 562.75 297.54 562.77C296.57 563.53 295.35 563.98 294.02000000000004 563.98C293.79 563.98 293.56000000000006 563.97 293.34000000000003 563.94C291.76000000000005 563.7600000000001 296.09000000000003 565.22 297.69000000000005 565.22C302.90000000000003 565.22 305.75000000000006 560.9 305.75000000000006 557.1600000000001L305.74000000000007 556.7900000000001C306.2900000000001 556.3900000000001 306.77000000000004 555.9000000000001 307.1500000000001 555.33C307.43000000000006 554.9100000000001 306.1000000000001 555.71 305.5300000000001 555.7700000000001C306.11000000000007 555.4200000000001 306.56000000000006 554.8700000000001 306.7700000000001 554.2100000000002Z "
                fill="#ffffff"></path>
        </clipPath>
    </defs>
    <path
        id="SvgjsPath1015"
        d="M305.53 555.77C306.10999999999996 555.42 306.55999999999995 554.87 306.77 554.21C306.94 553.6700000000001 305.62 554.77 304.96999999999997 554.89C304.45 554.34 303.71999999999997 554 302.9 554C301.34 554 300.07 555.27 300.07 556.83C300.07 557.0500000000001 300.09999999999997 557.2700000000001 300.14 557.48C297.78999999999996 557.36 295.7 556.23 294.31 554.52C294.06 554.9399999999999 293.92 555.42 293.92 555.9399999999999C293.92 556.92 294.42 557.79 295.18 558.3C294.72 558.28 294.28000000000003 558.16 293.90000000000003 557.9399999999999L293.90000000000003 557.9799999999999C293.90000000000003 559.3499999999999 294.88000000000005 560.4999999999999 296.17 560.7599999999999C295.93 560.8199999999998 295.68 560.8599999999999 295.42 560.8599999999999C295.24 560.8599999999999 295.06 560.8399999999999 294.89000000000004 560.8C295.25000000000006 561.93 296.30000000000007 562.75 297.54 562.77C296.57 563.53 295.35 563.98 294.02000000000004 563.98C293.79 563.98 293.56000000000006 563.97 293.34000000000003 563.94C291.76000000000005 563.7600000000001 296.09000000000003 565.22 297.69000000000005 565.22C302.90000000000003 565.22 305.75000000000006 560.9 305.75000000000006 557.1600000000001L305.74000000000007 556.7900000000001C306.2900000000001 556.3900000000001 306.77000000000004 555.9000000000001 307.1500000000001 555.33C307.43000000000006 554.9100000000001 306.1000000000001 555.71 305.5300000000001 555.7700000000001Z "
        fill-opacity="0"
        fill="#ffffff"
        stroke-dasharray="0"
        stroke-linejoin="miter"
        stroke-linecap="butt"
        stroke-opacity="1"
        stroke="#ffffff"
        stroke-miterlimit="50"
        stroke-width="2.599999904632568"
        clip-path="url(&quot;#SvgjsClipPath1017&quot;)"
        transform="matrix(1,0,0,1,-290.7000000476837,-552.4779160433598)"></path>
</svg>
