<?xml version="1.0" encoding="UTF-8" standalone="no"?>
<svg width="26px" height="16px" viewBox="0 0 26 16" version="1.1" xmlns="http://www.w3.org/2000/svg" xmlns:xlink="http://www.w3.org/1999/xlink">
    <!-- Generator: Sketch 39.1 (31720) - http://www.bohemiancoding.com/sketch -->
    <title>XMLID_807_</title>
    <desc>Created with Sketch.</desc>
    <defs>
        <path d="M41.2763109,11.0593332 C42.0192666,11.7847012 42.8034323,12.4671667 43.4697818,13.2656822 C43.7641382,13.6205289 44.0428202,13.9867084 44.2560079,14.3985131 C44.5580912,14.9839146 44.2844869,15.6281137 43.7595757,15.6630685 L40.4966341,15.6615968 C39.655069,15.7314328 38.9837154,15.3926285 38.4192133,14.8172352 C37.9674497,14.3570824 37.5490955,13.8673468 37.114699,13.3916668 C36.9366133,13.1972443 36.7502121,13.0143018 36.5275314,12.8696991 C36.0820964,12.5805675 35.6954592,12.6690952 35.4409144,13.1336633 C35.18166,13.6061791 35.1228623,14.1293977 35.0974004,14.6560014 C35.0624456,15.4243454 34.8301983,15.6263476 34.0583956,15.6615232 C32.4089691,15.7393069 30.8435814,15.4897662 29.3893868,14.657694 C28.1073171,13.9241576 27.1131281,12.8886116 26.2477937,11.7162633 C24.5629708,9.4334552 23.2727327,6.92502288 22.1131154,4.34631295 C21.8520948,3.76532685 22.0429849,3.45345616 22.6840198,3.44241779 C23.7484864,3.42173925 24.8128058,3.42321103 25.8785235,3.44094601 C26.3111539,3.44727467 26.5975627,3.69541718 26.76461,4.10413115 C27.3405185,5.52020658 28.0452079,6.86747619 28.9297491,8.11628355 C29.1653079,8.44875919 29.4055028,8.78123483 29.747545,9.01524823 C30.1259403,9.27435552 30.4140417,9.18847702 30.5920538,8.76695854 C30.705013,8.49968286 30.7544649,8.21180223 30.7799268,7.92554055 C30.8642599,6.94069736 30.8753719,5.95754672 30.7274577,4.97616222 C30.6366488,4.36367998 30.291663,3.9671818 29.6805053,3.85127894 C29.3686346,3.79218687 29.4150694,3.67613683 29.5660742,3.49812475 C29.8283459,3.19111094 30.0750166,3 30.5667391,3 L34.2543635,3 C34.834908,3.11457826 34.9638362,3.3753781 35.0433124,3.95952853 L35.0464768,8.0557197 C35.0401481,8.28185907 35.1594361,8.95291825 35.5667518,9.10259852 C35.8927516,9.20915556 36.1076319,8.94835572 36.3032317,8.74164389 C37.186154,7.80456004 37.8162976,6.69711737 38.3792544,5.55037812 C38.6290895,5.04614547 38.8438961,4.5224853 39.0520797,3.99926666 C39.2063225,3.61101046 39.4483571,3.41997311 39.8856973,3.42843585 L43.4348269,3.43160019 C43.5400594,3.43160019 43.6465428,3.43314556 43.7484638,3.45058618 C44.3465225,3.55250711 44.5104055,3.80977467 44.3256968,4.39377793 C44.0346518,5.31003606 43.4683836,6.07359676 42.914699,6.84068975 C42.3228217,7.65966306 41.6898081,8.45059892 41.1028613,9.27442911 C40.5636002,10.0267307 40.6064291,10.4059354 41.2763109,11.0593332 L41.2763109,11.0593332 L41.2763109,11.0593332 Z" id="path-1"></path>
        <mask id="mask-2" maskContentUnits="userSpaceOnUse" maskUnits="objectBoundingBox" x="-1.29999995" y="-1.29999995" width="24.997582" height="15.2749853">
            <rect x="20.7" y="1.70000005" width="24.997582" height="15.2749853" fill="white"></rect>
            <use xlink:href="#path-1" fill="black"></use>
        </mask>
    </defs>
    <g id="Page-1" stroke="none" stroke-width="1" fill="none" fill-rule="evenodd">
        <g id="main-6" transform="translate(-145.000000, -552.000000)" stroke="#ffffff" stroke-width="2.5999999">
            <g id="share-copy" transform="translate(125.000000, 551.000000)">
                <use id="XMLID_807_" mask="url(#mask-2)" xlink:href="#path-1"></use>
            </g>
        </g>
    </g>
</svg>
