<svg id="SvgjsSvg1000" xmlns="http://www.w3.org/2000/svg" version="1.1" xmlns:xlink="http://www.w3.org/1999/xlink" xmlns:svgjs="http://svgjs.com/svgjs" width="24" height="13">
    <defs id="SvgjsDefs1001"></defs>
    <path
        id="SvgjsPath1007"
        d="M166.28 562.06C167.02 562.78 167.8 563.4699999999999 168.47 564.27C168.76 564.62 169.04 564.99 169.26 565.4C169.56 565.98 169.28 566.63 168.76 566.66L165.5 566.66C164.66 566.73 163.98 566.39 163.42 565.8199999999999C162.97 565.3599999999999 162.54999999999998 564.8699999999999 162.10999999999999 564.39C161.94 564.1999999999999 161.74999999999997 564.01 161.52999999999997 563.87C161.07999999999998 563.58 160.69999999999996 563.67 160.43999999999997 564.13C160.17999999999998 564.61 160.11999999999998 565.13 160.09999999999997 565.66C160.05999999999997 566.42 159.82999999999996 566.63 159.05999999999997 566.66C157.40999999999997 566.74 155.83999999999997 566.49 154.39 565.66C153.10999999999999 564.92 152.10999999999999 563.89 151.25 562.7199999999999C149.56 560.43 148.27 557.93 147.11 555.3499999999999C146.85000000000002 554.7699999999999 147.04000000000002 554.4499999999999 147.68 554.4399999999999C148.75 554.42 149.81 554.42 150.88 554.4399999999999C151.31 554.4499999999999 151.6 554.6999999999999 151.76 555.0999999999999C152.34 556.5199999999999 153.04999999999998 557.8699999999999 153.92999999999998 559.1199999999999C154.17 559.4499999999999 154.40999999999997 559.7799999999999 154.74999999999997 560.0199999999999C155.12999999999997 560.2699999999999 155.40999999999997 560.1899999999998 155.58999999999997 559.7699999999999C155.70999999999998 559.4999999999999 155.74999999999997 559.2099999999999 155.77999999999997 558.9299999999998C155.85999999999999 557.9399999999998 155.87999999999997 556.9599999999998 155.72999999999996 555.9799999999998C155.63999999999996 555.3599999999998 155.28999999999996 554.9699999999998 154.67999999999995 554.8499999999998C154.36999999999995 554.7899999999998 154.41999999999996 554.6799999999998 154.56999999999994 554.4999999999998C154.82999999999993 554.1899999999998 155.07999999999993 553.9999999999998 155.56999999999994 553.9999999999998L159.24999999999994 553.9999999999998C159.82999999999996 554.1099999999998 159.95999999999995 554.3799999999998 160.03999999999994 554.9599999999998L160.04999999999993 559.0599999999998C160.03999999999994 559.2799999999999 160.15999999999994 559.9499999999998 160.56999999999994 560.0999999999998C160.88999999999993 560.2099999999998 161.10999999999993 559.9499999999998 161.29999999999993 559.7399999999998C162.1899999999999 558.7999999999997 162.81999999999994 557.6999999999998 163.37999999999994 556.5499999999997C163.62999999999994 556.0499999999997 163.83999999999995 555.5199999999998 164.04999999999993 554.9999999999998C164.20999999999992 554.6099999999998 164.44999999999993 554.4199999999997 164.88999999999993 554.4299999999997L168.42999999999992 554.4299999999997C168.53999999999994 554.4299999999997 168.64999999999992 554.4299999999997 168.74999999999991 554.4499999999997C169.3499999999999 554.5499999999997 169.5099999999999 554.8099999999997 169.32999999999993 555.3899999999998C169.02999999999992 556.3099999999997 168.4699999999999 557.0699999999997 167.90999999999994 557.8399999999998C167.31999999999994 558.6599999999999 166.68999999999994 559.4499999999998 166.09999999999994 560.2699999999998C165.55999999999995 561.0299999999997 165.60999999999993 561.4099999999997 166.27999999999994 562.0599999999997L166.27999999999994 562.0599999999997Z "
        fill="#ffffff"
        fill-opacity="1"
        transform="matrix(1,0,0,1,-146,-554)"></path>
</svg>
