<svg id="SvgjsSvg1013" xmlns="http://www.w3.org/2000/svg" version="1.1" xmlns:xlink="http://www.w3.org/1999/xlink" xmlns:svgjs="http://svgjs.com/svgjs" width="61" height="31"><defs id="SvgjsDefs1014"></defs><path id="SvgjsPath1015" d="M657.43 452.6C660.89 452.6 663.6999999999999 449.79 663.6999999999999 446.34000000000003L663.6999999999999 438.8C663.6999999999999 435.34000000000003 660.8799999999999 432.53000000000003 657.42 432.53000000000003L624.8 432.53000000000003C621.3399999999999 432.53000000000003 618.53 435.34000000000003 618.53 438.8L618.53 446.34000000000003C618.53 449.79 621.3399999999999 452.6 624.8 452.6L635.41 452.6C636.55 450.65000000000003 638.52 448.14000000000004 641.11 448.14000000000004C642.87 448.14000000000004 644.48 449.22 646.04 451.44000000000005C646.3299999999999 451.84000000000003 646.5799999999999 452.24000000000007 646.79 452.6000000000001ZM636.09 428.76L636.09 430.02L646.13 430.02L646.13 428.76C646.13 428.07 645.57 427.51 644.88 427.51L637.35 427.51C636.66 427.51 636.09 428.07 636.09 428.76ZM668.72 446.33L668.72 438.8C668.72 438.11 668.15 437.55 667.46 437.55L666.21 437.55L666.21 447.58L667.46 447.58C668.1500000000001 447.58 668.72 447.02 668.72 446.33ZM616.02 447.58L616.02 437.55L614.76 437.55C614.0699999999999 437.55 613.51 438.11 613.51 438.8L613.51 446.33C613.51 447.02 614.0699999999999 447.58 614.76 447.58ZM667.46 435.04C669.5400000000001 435.04 671.23 436.72 671.23 438.8L671.23 446.33C671.23 448.40999999999997 669.54 450.09 667.46 450.09L665.35 450.09C663.94 453.06 660.9300000000001 455.10999999999996 657.4300000000001 455.10999999999996L645.3000000000001 455.10999999999996C645.3000000000001 455.10999999999996 643.2 450.65 641.11 450.65C639.02 450.65 636.9300000000001 455.10999999999996 636.9300000000001 455.10999999999996L624.8000000000001 455.10999999999996C621.3000000000001 455.10999999999996 618.2800000000001 453.05999999999995 616.8700000000001 450.09L614.7600000000001 450.09C612.69 450.09 611.0000000000001 448.40999999999997 611.0000000000001 446.33L611.0000000000001 438.8C611.0000000000001 436.72 612.6900000000002 435.04 614.7600000000001 435.04L616.8700000000001 435.04C618.2900000000001 432.07 621.3000000000001 430.02000000000004 624.8000000000001 430.02000000000004L633.58 430.02000000000004L633.58 428.76000000000005C633.58 426.69000000000005 635.2700000000001 425.00000000000006 637.35 425.00000000000006L644.88 425.00000000000006C646.96 425.00000000000006 648.64 426.69000000000005 648.64 428.76000000000005L648.64 430.02000000000004L657.42 430.02000000000004C660.93 430.02000000000004 663.9399999999999 432.07000000000005 665.3499999999999 435.04Z " fill="#ffffff" fill-opacity="1" transform="matrix(1,0,0,1,-611,-425)"></path><path id="SvgjsPath1016" d="M623.51 442.53C623.51 439.76 625.76 437.51 628.53 437.51C631.3 437.51 633.55 439.76 633.55 442.53C633.55 445.29999999999995 631.3 447.54999999999995 628.53 447.54999999999995C625.76 447.54999999999995 623.51 445.29999999999995 623.51 442.53ZM621 442.53C621 446.67999999999995 624.38 450.05999999999995 628.53 450.05999999999995C632.68 450.05999999999995 636.06 446.67999999999995 636.06 442.53C636.06 438.38 632.68 435 628.53 435C624.38 435 621 438.38 621 442.53Z " fill="#ffffff" fill-opacity="1" transform="matrix(1,0,0,1,-611,-425)"></path><path id="SvgjsPath1017" d="M648.51 442.53C648.51 439.76 650.76 437.51 653.53 437.51C656.3 437.51 658.55 439.76 658.55 442.53C658.55 445.29999999999995 656.3 447.54999999999995 653.53 447.54999999999995C650.76 447.54999999999995 648.51 445.29999999999995 648.51 442.53ZM646 442.53C646 446.67999999999995 649.38 450.05999999999995 653.53 450.05999999999995C657.68 450.05999999999995 661.06 446.67999999999995 661.06 442.53C661.06 438.38 657.68 435 653.53 435C649.38 435 646 438.38 646 442.53Z " fill="#ffffff" fill-opacity="1" transform="matrix(1,0,0,1,-611,-425)"></path></svg>